NotoSans-MediumItalic.ufo
<glyph name="comma" format="2">
  <advance width="524"/>
  <unicode hex="002C"/>
  <outline>
    <contour>
      <point x="-88" y="-264" type="curve"/>
      <point x="49" y="-264" type="line"/>
      <point x="145" y="-115"/>
      <point x="252" y="70"/>
      <point x="319" y="215" type="curve"/>
      <point x="311" y="238" type="line"/>
      <point x="115" y="238" type="line"/>
      <point x="63" y="96"/>
      <point x="-16" y="-102"/>
    </contour>
  </outline>
</glyph>
<glyph name="four" format="2">
  <advance width="1128"/>
  <unicode hex="0034"/>
  <outline>
    <contour>
      <point x="590" y="0" type="line"/>
      <point x="764" y="0" type="line"/>
      <point x="836" y="332" type="line"/>
      <point x="1063" y="332" type="line"/>
      <point x="1098" y="492" type="line"/>
      <point x="872" y="492" type="line"/>
      <point x="1075" y="1462" type="line"/>
      <point x="868" y="1462" type="line"/>
      <point x="43" y="496" type="line"/>
      <point x="12" y="332" type="line"/>
      <point x="662" y="332" type="line"/>
    </contour>
    <contour>
      <point x="227" y="492" type="line"/>
      <point x="737" y="1087" type="line" smooth="yes"/>
      <point x="772" y="1128"/>
      <point x="844" y="1225"/>
      <point x="877" y="1278" type="curve"/>
      <point x="885" y="1278" type="line"/>
      <point x="858" y="1184"/>
      <point x="803" y="991"/>
      <point x="770" y="842" type="curve" smooth="yes"/>
      <point x="696" y="492" type="line"/>
    </contour>
  </outline>
</glyph>
<glyph name="question" format="2">
  <advance width="881"/>
  <unicode hex="003F"/>
  <outline>
    <contour>
      <point x="260" y="412" type="curve"/>
      <point x="406" y="412" type="line"/>
      <point x="438" y="553"/>
      <point x="477" y="596"/>
      <point x="637" y="713" type="curve" smooth="yes"/>
      <point x="827" y="854"/>
      <point x="930" y="977"/>
      <point x="930" y="1161" type="curve" smooth="yes"/>
      <point x="930" y="1376"/>
      <point x="791" y="1483"/>
      <point x="575" y="1483" type="curve" smooth="yes"/>
      <point x="446" y="1483"/>
      <point x="305" y="1440"/>
      <point x="195" y="1380" type="curve"/>
      <point x="260" y="1243" type="line"/>
      <point x="350" y="1286"/>
      <point x="451" y="1327"/>
      <point x="555" y="1327" type="curve" smooth="yes"/>
      <point x="680" y="1327"/>
      <point x="748" y="1257"/>
      <point x="748" y="1139" type="curve" smooth="yes"/>
      <point x="748" y="983"/>
      <point x="631" y="901"/>
      <point x="500" y="801" type="curve" smooth="yes"/>
      <point x="350" y="684"/>
      <point x="289" y="588"/>
    </contour>
    <contour>
      <point x="264" y="-29" type="curve" smooth="yes"/>
      <point x="367" y="-29"/>
      <point x="416" y="55"/>
      <point x="416" y="139" type="curve" smooth="yes"/>
      <point x="416" y="211"/>
      <point x="375" y="248"/>
      <point x="315" y="248" type="curve" smooth="yes"/>
      <point x="207" y="248"/>
      <point x="158" y="168"/>
      <point x="158" y="78" type="curve" smooth="yes"/>
      <point x="158" y="10"/>
      <point x="197" y="-29"/>
    </contour>
  </outline>
</glyph>
<glyph name="grave" format="2">
  <advance width="569"/>
  <unicode hex="0060"/>
  <anchor x="487" y="1098" name="_top"/>
  <outline>
    <contour>
      <point x="524" y="1241" type="curve"/>
      <point x="635" y="1241" type="line"/>
      <point x="635" y="1266" type="line"/>
      <point x="580" y="1358"/>
      <point x="522" y="1468"/>
      <point x="492" y="1569" type="curve"/>
      <point x="299" y="1569" type="line"/>
      <point x="299" y="1548" type="line"/>
      <point x="340" y="1462"/>
      <point x="446" y="1319"/>
    </contour>
  </outline>
</glyph>
<glyph name="r" format="2">
  <advance width="815"/>
  <unicode hex="0072"/>
  <anchor x="154" y="0" name="bottom"/>
  <anchor x="590" y="1098" name="top"/>
  <anchor x="891" y="1098" name="topright"/>
  <outline>
    <contour>
      <point x="57" y="0" type="line"/>
      <point x="238" y="0" type="line"/>
      <point x="344" y="502" type="line" smooth="yes"/>
      <point x="389" y="719"/>
      <point x="530" y="954"/>
      <point x="735" y="954" type="curve"/>
      <point x="770" y="954"/>
      <point x="803" y="950"/>
      <point x="840" y="942" type="curve"/>
      <point x="879" y="1104" type="line"/>
      <point x="842" y="1114"/>
      <point x="799" y="1118"/>
      <point x="760" y="1118" type="curve"/>
      <point x="604" y="1118"/>
      <point x="512" y="1008"/>
      <point x="426" y="895" type="curve"/>
      <point x="416" y="895" type="line"/>
      <point x="438" y="1098" type="line"/>
      <point x="291" y="1098" type="line"/>
    </contour>
  </outline>
</glyph>
<glyph name="braceleft" format="2">
  <advance width="717"/>
  <unicode hex="007B"/>
  <outline>
    <contour>
      <point x="444" y="-324" type="curve" smooth="yes"/>
      <point x="471" y="-324" type="line"/>
      <point x="471" y="-174" type="line"/>
      <point x="377" y="-174"/>
      <point x="317" y="-154"/>
      <point x="317" y="-74" type="curve" smooth="yes"/>
      <point x="317" y="-47"/>
      <point x="324" y="-14"/>
      <point x="332" y="20" type="curve" smooth="yes"/>
      <point x="377" y="229" type="line"/>
      <point x="387" y="272"/>
      <point x="395" y="322"/>
      <point x="395" y="358" type="curve" smooth="yes"/>
      <point x="395" y="465"/>
      <point x="348" y="543"/>
      <point x="242" y="571" type="curve"/>
      <point x="242" y="575" type="line"/>
      <point x="401" y="602"/>
      <point x="471" y="696"/>
      <point x="502" y="836" type="curve" smooth="yes"/>
      <point x="573" y="1155" type="line"/>
      <point x="602" y="1284"/>
      <point x="668" y="1313"/>
      <point x="788" y="1313" type="curve"/>
      <point x="819" y="1462" type="line"/>
      <point x="782" y="1462" type="line"/>
      <point x="555" y="1462"/>
      <point x="453" y="1386"/>
      <point x="408" y="1171" type="curve" smooth="yes"/>
      <point x="340" y="850" type="line"/>
      <point x="311" y="711"/>
      <point x="215" y="659"/>
      <point x="57" y="659" type="curve"/>
      <point x="23" y="510" type="line"/>
      <point x="160" y="510"/>
      <point x="231" y="463"/>
      <point x="231" y="367" type="curve" smooth="yes"/>
      <point x="231" y="334"/>
      <point x="225" y="299"/>
      <point x="217" y="256" type="curve" smooth="yes"/>
      <point x="168" y="41" type="line"/>
      <point x="156" y="-10"/>
      <point x="147" y="-55"/>
      <point x="147" y="-98" type="curve" smooth="yes"/>
      <point x="147" y="-254"/>
      <point x="252" y="-324"/>
    </contour>
  </outline>
</glyph>
<glyph name="exclamdown" format="2">
  <advance width="535"/>
  <unicode hex="00A1"/>
  <outline>
    <contour>
      <point x="-20" y="-373" type="line"/>
      <point x="199" y="-373" type="line"/>
      <point x="373" y="678" type="line"/>
      <point x="254" y="678" type="line"/>
    </contour>
    <contour>
      <point x="352" y="842" type="curve" smooth="yes"/>
      <point x="455" y="842"/>
      <point x="502" y="928"/>
      <point x="502" y="1008" type="curve" smooth="yes"/>
      <point x="502" y="1079"/>
      <point x="463" y="1118"/>
      <point x="401" y="1118" type="curve" smooth="yes"/>
      <point x="295" y="1118"/>
      <point x="246" y="1038"/>
      <point x="246" y="948" type="curve" smooth="yes"/>
      <point x="246" y="879"/>
      <point x="285" y="842"/>
    </contour>
  </outline>
</glyph>
<glyph name="sterling" format="2">
  <advance width="1128"/>
  <unicode hex="00A3"/>
  <outline>
    <contour>
      <point x="-23" y="0" type="line"/>
      <point x="934" y="0" type="line"/>
      <point x="969" y="164" type="line"/>
      <point x="250" y="164" type="line"/>
      <point x="332" y="207"/>
      <point x="408" y="274"/>
      <point x="442" y="440" type="curve" smooth="yes"/>
      <point x="487" y="647" type="line"/>
      <point x="852" y="647" type="line"/>
      <point x="881" y="782" type="line"/>
      <point x="516" y="782" type="line"/>
      <point x="584" y="1100" type="line" smooth="yes"/>
      <point x="623" y="1284"/>
      <point x="729" y="1331"/>
      <point x="840" y="1331" type="curve" smooth="yes"/>
      <point x="954" y="1331"/>
      <point x="1049" y="1288"/>
      <point x="1114" y="1253" type="curve"/>
      <point x="1184" y="1395" type="line"/>
      <point x="1102" y="1440"/>
      <point x="987" y="1481"/>
      <point x="844" y="1481" type="curve" smooth="yes"/>
      <point x="635" y="1481"/>
      <point x="467" y="1386"/>
      <point x="410" y="1124" type="curve" smooth="yes"/>
      <point x="338" y="782" type="line"/>
      <point x="137" y="782" type="line"/>
      <point x="109" y="647" type="line"/>
      <point x="309" y="647" type="line"/>
      <point x="264" y="438" type="line" smooth="yes"/>
      <point x="225" y="258"/>
      <point x="125" y="178"/>
      <point x="6" y="152" type="curve"/>
    </contour>
  </outline>
</glyph>
<glyph name="Eth" format="2">
  <advance width="1366"/>
  <unicode hex="00D0"/>
  <anchor x="567" y="0" name="bottom"/>
  <anchor x="879" y="1462" name="top"/>
  <outline>
    <contour>
      <point x="84" y="0" type="line"/>
      <point x="444" y="0" type="line" smooth="yes"/>
      <point x="997" y="0"/>
      <point x="1303" y="371"/>
      <point x="1303" y="879" type="curve"/>
      <point x="1303" y="1274"/>
      <point x="1092" y="1462"/>
      <point x="739" y="1462" type="curve"/>
      <point x="393" y="1462" type="line"/>
      <point x="252" y="803" type="line"/>
      <point x="102" y="803" type="line"/>
      <point x="68" y="645" type="line"/>
      <point x="217" y="645" type="line"/>
    </contour>
    <contour>
      <point x="299" y="158" type="line"/>
      <point x="401" y="645" type="line"/>
      <point x="723" y="645" type="line"/>
      <point x="758" y="803" type="line"/>
      <point x="436" y="803" type="line"/>
      <point x="543" y="1305" type="line"/>
      <point x="717" y="1305" type="line" smooth="yes"/>
      <point x="954" y="1305"/>
      <point x="1110" y="1180"/>
      <point x="1110" y="881" type="curve"/>
      <point x="1110" y="473"/>
      <point x="879" y="158"/>
      <point x="455" y="158" type="curve"/>
    </contour>
  </outline>
</glyph>
<glyph name="hbar" format="2">
  <advance width="1186"/>
  <unicode hex="0127"/>
  <anchor x="477" y="0" name="bottom"/>
  <anchor x="809" y="1556" name="top"/>
  <outline>
    <contour>
      <point x="57" y="0" type="line"/>
      <point x="238" y="0" type="line"/>
      <point x="332" y="457" type="line" smooth="yes"/>
      <point x="408" y="815"/>
      <point x="604" y="952"/>
      <point x="741" y="952" type="curve" smooth="yes"/>
      <point x="842" y="952"/>
      <point x="887" y="897"/>
      <point x="887" y="803" type="curve" smooth="yes"/>
      <point x="887" y="772"/>
      <point x="881" y="729"/>
      <point x="868" y="670" type="curve"/>
      <point x="725" y="0" type="line"/>
      <point x="905" y="0" type="line"/>
      <point x="1044" y="649" type="line"/>
      <point x="1057" y="713"/>
      <point x="1067" y="764"/>
      <point x="1067" y="817" type="curve" smooth="yes"/>
      <point x="1067" y="1004"/>
      <point x="963" y="1102"/>
      <point x="791" y="1102" type="curve" smooth="yes"/>
      <point x="614" y="1102"/>
      <point x="498" y="979"/>
      <point x="422" y="877" type="curve"/>
      <point x="412" y="877" type="line"/>
      <point x="428" y="948"/>
      <point x="463" y="1081"/>
      <point x="500" y="1237" type="curve"/>
      <point x="842" y="1237" type="line"/>
      <point x="872" y="1372" type="line"/>
      <point x="526" y="1372" type="line"/>
      <point x="567" y="1556" type="line"/>
      <point x="387" y="1556" type="line"/>
      <point x="348" y="1372" type="line"/>
      <point x="199" y="1372" type="line"/>
      <point x="168" y="1237" type="line"/>
      <point x="322" y="1237" type="line"/>
    </contour>
  </outline>
</glyph>
<glyph name="uni018B" format="2">
  <advance width="1169"/>
  <unicode hex="018B"/>
  <anchor x="469" y="0" name="bottom"/>
  <anchor x="780" y="1462" name="top"/>
  <outline>
    <contour>
      <point x="537" y="0" type="curve" smooth="yes"/>
      <point x="866" y="0" type="line"/>
      <point x="1176" y="1462" type="line"/>
      <point x="375" y="1462" type="line"/>
      <point x="340" y="1300" type="line"/>
      <point x="961" y="1300" type="line"/>
      <point x="864" y="844" type="line"/>
      <point x="733" y="844" type="line" smooth="yes"/>
      <point x="322" y="844"/>
      <point x="98" y="676"/>
      <point x="98" y="362" type="curve" smooth="yes"/>
      <point x="98" y="147"/>
      <point x="225" y="0"/>
    </contour>
    <contour>
      <point x="561" y="158" type="line" smooth="yes"/>
      <point x="387" y="158"/>
      <point x="285" y="221"/>
      <point x="285" y="369" type="curve" smooth="yes"/>
      <point x="285" y="590"/>
      <point x="451" y="686"/>
      <point x="702" y="686" type="curve" smooth="yes"/>
      <point x="829" y="686" type="line"/>
      <point x="717" y="158" type="line"/>
    </contour>
  </outline>
</glyph>
<glyph name="uni0193" format="2">
  <advance width="1389"/>
  <unicode hex="0193"/>
  <anchor x="578" y="0" name="bottom"/>
  <anchor x="889" y="1462" name="top"/>
  <outline>
    <contour>
      <point x="702" y="-20" type="curve" smooth="yes"/>
      <point x="874" y="-20"/>
      <point x="1006" y="12"/>
      <point x="1128" y="55" type="curve"/>
      <point x="1284" y="770" type="line"/>
      <point x="815" y="770" type="line"/>
      <point x="780" y="610" type="line"/>
      <point x="1067" y="610" type="line"/>
      <point x="973" y="178" type="line"/>
      <point x="913" y="158"/>
      <point x="825" y="141"/>
      <point x="721" y="141" type="curve" smooth="yes"/>
      <point x="459" y="141"/>
      <point x="342" y="315"/>
      <point x="342" y="543" type="curve" smooth="yes"/>
      <point x="342" y="997"/>
      <point x="596" y="1321"/>
      <point x="934" y="1321" type="curve" smooth="yes"/>
      <point x="1073" y="1321"/>
      <point x="1192" y="1288"/>
      <point x="1321" y="1231" type="curve"/>
      <point x="1380" y="1487" type="line" smooth="yes"/>
      <point x="1401" y="1573"/>
      <point x="1434" y="1604"/>
      <point x="1495" y="1604" type="curve" smooth="yes"/>
      <point x="1528" y="1604"/>
      <point x="1559" y="1595"/>
      <point x="1589" y="1585" type="curve"/>
      <point x="1589" y="1735" type="line"/>
      <point x="1567" y="1747"/>
      <point x="1524" y="1757"/>
      <point x="1479" y="1757" type="curve" smooth="yes"/>
      <point x="1360" y="1757"/>
      <point x="1270" y="1702"/>
      <point x="1229" y="1526" type="curve" smooth="yes"/>
      <point x="1210" y="1446" type="line"/>
      <point x="1130" y="1468"/>
      <point x="1044" y="1483"/>
      <point x="936" y="1483" type="curve" smooth="yes"/>
      <point x="467" y="1483"/>
      <point x="147" y="1065"/>
      <point x="147" y="530" type="curve" smooth="yes"/>
      <point x="147" y="182"/>
      <point x="354" y="-20"/>
    </contour>
  </outline>
</glyph>
<glyph name="uni019D" format="2">
  <advance width="1448"/>
  <unicode hex="019D"/>
  <anchor x="504" y="-492" name="bottom"/>
  <anchor x="920" y="1462" name="top"/>
  <outline>
    <contour>
      <point x="-78" y="-492" type="curve" smooth="yes"/>
      <point x="90" y="-492"/>
      <point x="172" y="-383"/>
      <point x="213" y="-193" type="curve" smooth="yes"/>
      <point x="422" y="791" type="line" smooth="yes"/>
      <point x="453" y="940"/>
      <point x="485" y="1126"/>
      <point x="496" y="1212" type="curve"/>
      <point x="502" y="1212" type="line"/>
      <point x="954" y="0" type="line"/>
      <point x="1149" y="0" type="line"/>
      <point x="1458" y="1462" type="line"/>
      <point x="1284" y="1462" type="line"/>
      <point x="1112" y="657" type="line" smooth="yes"/>
      <point x="1081" y="520"/>
      <point x="1053" y="352"/>
      <point x="1040" y="254" type="curve"/>
      <point x="1034" y="254" type="line"/>
      <point x="586" y="1462" type="line"/>
      <point x="391" y="1462" type="line"/>
      <point x="47" y="-162" type="line" smooth="yes"/>
      <point x="18" y="-291"/>
      <point x="-33" y="-330"/>
      <point x="-109" y="-330" type="curve" smooth="yes"/>
      <point x="-143" y="-330"/>
      <point x="-174" y="-317"/>
      <point x="-197" y="-305" type="curve"/>
      <point x="-197" y="-461" type="line"/>
      <point x="-172" y="-477"/>
      <point x="-123" y="-492"/>
    </contour>
  </outline>
</glyph>
<glyph name="uni01A2" format="2">
  <advance width="2058"/>
  <unicode hex="01A2"/>
  <anchor x="913" y="0" name="bottom"/>
  <anchor x="1225" y="1462" name="top"/>
  <outline>
    <contour>
      <point x="686" y="-20" type="curve" smooth="yes"/>
      <point x="1143" y="-20"/>
      <point x="1393" y="403"/>
      <point x="1393" y="909" type="curve" smooth="yes"/>
      <point x="1393" y="1016"/>
      <point x="1374" y="1112"/>
      <point x="1341" y="1192" type="curve"/>
      <point x="1417" y="1264"/>
      <point x="1520" y="1325"/>
      <point x="1642" y="1325" type="curve" smooth="yes"/>
      <point x="1759" y="1325"/>
      <point x="1823" y="1266"/>
      <point x="1823" y="1145" type="curve" smooth="yes"/>
      <point x="1823" y="1114"/>
      <point x="1819" y="1077"/>
      <point x="1810" y="1038" type="curve" smooth="yes"/>
      <point x="1591" y="0" type="line"/>
      <point x="1774" y="0" type="line"/>
      <point x="1991" y="1038" type="line" smooth="yes"/>
      <point x="2001" y="1083"/>
      <point x="2005" y="1126"/>
      <point x="2005" y="1167" type="curve" smooth="yes"/>
      <point x="2005" y="1364"/>
      <point x="1888" y="1485"/>
      <point x="1671" y="1485" type="curve" smooth="yes"/>
      <point x="1524" y="1485"/>
      <point x="1380" y="1411"/>
      <point x="1278" y="1303" type="curve"/>
      <point x="1190" y="1419"/>
      <point x="1053" y="1485"/>
      <point x="879" y="1485" type="curve" smooth="yes"/>
      <point x="432" y="1485"/>
      <point x="147" y="1053"/>
      <point x="147" y="547" type="curve" smooth="yes"/>
      <point x="147" y="197"/>
      <point x="340" y="-20"/>
    </contour>
    <contour>
      <point x="692" y="141" type="curve" smooth="yes"/>
      <point x="475" y="141"/>
      <point x="342" y="293"/>
      <point x="342" y="551" type="curve" smooth="yes"/>
      <point x="342" y="979"/>
      <point x="553" y="1323"/>
      <point x="866" y="1323" type="curve" smooth="yes"/>
      <point x="1065" y="1323"/>
      <point x="1198" y="1174"/>
      <point x="1198" y="913" type="curve" smooth="yes"/>
      <point x="1198" y="500"/>
      <point x="1001" y="141"/>
    </contour>
  </outline>
</glyph>
<glyph name="uni01A4" format="2">
  <advance width="1315"/>
  <unicode hex="01A4"/>
  <anchor x="541" y="0" name="bottom"/>
  <anchor x="852" y="1462" name="top"/>
  <outline>
    <contour>
      <point x="238" y="0" type="line"/>
      <point x="420" y="0" type="line"/>
      <point x="541" y="571" type="line"/>
      <point x="672" y="571" type="line" smooth="yes"/>
      <point x="1092" y="571"/>
      <point x="1315" y="752"/>
      <point x="1315" y="1081" type="curve" smooth="yes"/>
      <point x="1315" y="1309"/>
      <point x="1192" y="1462"/>
      <point x="877" y="1462" type="curve" smooth="yes"/>
      <point x="494" y="1462" type="line" smooth="yes"/>
      <point x="266" y="1462"/>
      <point x="164" y="1343"/>
      <point x="164" y="1169" type="curve" smooth="yes"/>
      <point x="164" y="1145"/>
      <point x="170" y="1108"/>
      <point x="178" y="1092" type="curve"/>
      <point x="332" y="1092" type="line"/>
      <point x="326" y="1110"/>
      <point x="322" y="1137"/>
      <point x="322" y="1157" type="curve" smooth="yes"/>
      <point x="322" y="1257"/>
      <point x="379" y="1305"/>
      <point x="477" y="1305" type="curve" smooth="yes"/>
      <point x="512" y="1305" type="line"/>
    </contour>
    <contour>
      <point x="573" y="725" type="line"/>
      <point x="696" y="1305" type="line"/>
      <point x="852" y="1305" type="line" smooth="yes"/>
      <point x="1038" y="1305"/>
      <point x="1128" y="1237"/>
      <point x="1128" y="1075" type="curve" smooth="yes"/>
      <point x="1128" y="834"/>
      <point x="963" y="725"/>
      <point x="700" y="725" type="curve" smooth="yes"/>
    </contour>
  </outline>
</glyph>
<glyph name="uni01AB" format="2">
  <advance width="680"/>
  <unicode hex="01AB"/>
  <anchor x="119" y="-492" name="bottom"/>
  <anchor x="510" y="1348" name="top"/>
  <outline>
    <contour>
      <point x="227" y="-492" type="curve" smooth="yes"/>
      <point x="346" y="-492"/>
      <point x="438" y="-438"/>
      <point x="477" y="-258" type="curve" smooth="yes"/>
      <point x="565" y="154" type="line"/>
      <point x="512" y="137"/>
      <point x="455" y="127"/>
      <point x="406" y="127" type="curve" smooth="yes"/>
      <point x="328" y="127"/>
      <point x="297" y="176"/>
      <point x="297" y="240" type="curve" smooth="yes"/>
      <point x="297" y="279"/>
      <point x="307" y="326"/>
      <point x="315" y="362" type="curve" smooth="yes"/>
      <point x="442" y="961" type="line"/>
      <point x="717" y="961" type="line"/>
      <point x="745" y="1098" type="line"/>
      <point x="469" y="1098" type="line"/>
      <point x="524" y="1348" type="line"/>
      <point x="418" y="1348" type="line"/>
      <point x="291" y="1120" type="line"/>
      <point x="106" y="1042" type="line"/>
      <point x="90" y="961" type="line"/>
      <point x="260" y="961" type="line"/>
      <point x="135" y="365" type="line" smooth="yes"/>
      <point x="123" y="311"/>
      <point x="117" y="260"/>
      <point x="117" y="219" type="curve" smooth="yes"/>
      <point x="117" y="47"/>
      <point x="223" y="-16"/>
      <point x="365" y="-20" type="curve"/>
      <point x="322" y="-221" type="line" smooth="yes"/>
      <point x="301" y="-311"/>
      <point x="272" y="-338"/>
      <point x="211" y="-338" type="curve" smooth="yes"/>
      <point x="178" y="-338"/>
      <point x="147" y="-330"/>
      <point x="117" y="-319" type="curve"/>
      <point x="117" y="-469" type="line"/>
      <point x="139" y="-481"/>
      <point x="182" y="-492"/>
    </contour>
  </outline>
</glyph>
<glyph name="uni01B4" format="2">
  <advance width="1028"/>
  <unicode hex="01B4"/>
  <anchor x="283" y="-492" name="bottom"/>
  <anchor x="621" y="1098" name="top"/>
  <outline>
    <contour>
      <point x="-51" y="-492" type="curve" smooth="yes"/>
      <point x="141" y="-492"/>
      <point x="248" y="-389"/>
      <point x="358" y="-184" type="curve" smooth="yes"/>
      <point x="926" y="860" type="line" smooth="yes"/>
      <point x="967" y="936"/>
      <point x="987" y="971"/>
      <point x="1030" y="971" type="curve" smooth="yes"/>
      <point x="1049" y="971"/>
      <point x="1069" y="965"/>
      <point x="1081" y="961" type="curve"/>
      <point x="1108" y="1094" type="line"/>
      <point x="1081" y="1108"/>
      <point x="1044" y="1118"/>
      <point x="1001" y="1118" type="curve" smooth="yes"/>
      <point x="899" y="1118"/>
      <point x="850" y="1073"/>
      <point x="768" y="920" type="curve" smooth="yes"/>
      <point x="543" y="496" type="line" smooth="yes"/>
      <point x="494" y="406"/>
      <point x="410" y="213"/>
      <point x="383" y="147" type="curve"/>
      <point x="377" y="147" type="line"/>
      <point x="377" y="233"/>
      <point x="369" y="422"/>
      <point x="350" y="555" type="curve" smooth="yes"/>
      <point x="279" y="1098" type="line"/>
      <point x="98" y="1098" type="line"/>
      <point x="264" y="-16" type="line"/>
      <point x="193" y="-143" type="line" smooth="yes"/>
      <point x="121" y="-274"/>
      <point x="49" y="-344"/>
      <point x="-61" y="-344" type="curve" smooth="yes"/>
      <point x="-111" y="-344"/>
      <point x="-156" y="-336"/>
      <point x="-193" y="-326" type="curve"/>
      <point x="-193" y="-471" type="line"/>
      <point x="-154" y="-483"/>
      <point x="-117" y="-492"/>
    </contour>
  </outline>
</glyph>
<glyph name="uni01BF" format="2">
  <advance width="1161"/>
  <unicode hex="01BF"/>
  <anchor x="360" y="-492" name="bottom"/>
  <anchor x="698" y="1098" name="top"/>
  <outline>
    <contour>
      <point x="-45" y="-492" type="line"/>
      <point x="133" y="-492" type="line"/>
      <point x="233" y="-20" type="line"/>
      <point x="711" y="31"/>
      <point x="1077" y="367"/>
      <point x="1077" y="764" type="curve" smooth="yes"/>
      <point x="1077" y="975"/>
      <point x="979" y="1116"/>
      <point x="774" y="1116" type="curve" smooth="yes"/>
      <point x="608" y="1116"/>
      <point x="492" y="1012"/>
      <point x="422" y="891" type="curve"/>
      <point x="414" y="891" type="line"/>
      <point x="438" y="1098" type="line"/>
      <point x="291" y="1098" type="line"/>
    </contour>
    <contour>
      <point x="264" y="137" type="curve" smooth="yes"/>
      <point x="338" y="485" type="line"/>
      <point x="391" y="741"/>
      <point x="539" y="967"/>
      <point x="715" y="967" type="curve" smooth="yes"/>
      <point x="844" y="967"/>
      <point x="891" y="872"/>
      <point x="891" y="748" type="curve" smooth="yes"/>
      <point x="891" y="461"/>
      <point x="618" y="180"/>
    </contour>
  </outline>
</glyph>
<glyph name="uni01E5" format="2">
  <advance width="1034"/>
  <unicode hex="01E5"/>
  <anchor x="297" y="-492" name="bottom"/>
  <anchor x="635" y="1098" name="top"/>
  <outline>
    <contour>
      <point x="381" y="-492" type="curve" smooth="yes"/>
      <point x="586" y="-492"/>
      <point x="733" y="-418"/>
      <point x="819" y="-240" type="curve"/>
      <point x="975" y="-240" type="line"/>
      <point x="1004" y="-94" type="line"/>
      <point x="870" y="-94" type="line"/>
      <point x="1128" y="1098" type="line"/>
      <point x="991" y="1098" type="line"/>
      <point x="924" y="928" type="line"/>
      <point x="915" y="928" type="line"/>
      <point x="870" y="1028"/>
      <point x="784" y="1118"/>
      <point x="637" y="1118" type="curve" smooth="yes"/>
      <point x="303" y="1118"/>
      <point x="102" y="762"/>
      <point x="102" y="365" type="curve" smooth="yes"/>
      <point x="102" y="119"/>
      <point x="223" y="0"/>
      <point x="401" y="0" type="curve" smooth="yes"/>
      <point x="555" y="0"/>
      <point x="670" y="102"/>
      <point x="764" y="223" type="curve"/>
      <point x="772" y="223" type="line"/>
      <point x="750" y="147"/>
      <point x="727" y="45"/>
      <point x="717" y="2" type="curve" smooth="yes"/>
      <point x="694" y="-94" type="line"/>
      <point x="373" y="-94" type="line"/>
      <point x="342" y="-240" type="line"/>
      <point x="635" y="-240" type="line"/>
      <point x="586" y="-313"/>
      <point x="510" y="-342"/>
      <point x="375" y="-342" type="curve" smooth="yes"/>
      <point x="258" y="-342"/>
      <point x="123" y="-299"/>
      <point x="51" y="-256" type="curve"/>
      <point x="51" y="-422" type="line"/>
      <point x="129" y="-463"/>
      <point x="248" y="-492"/>
    </contour>
    <contour>
      <point x="461" y="150" type="curve" smooth="yes"/>
      <point x="348" y="150"/>
      <point x="287" y="213"/>
      <point x="287" y="360" type="curve" smooth="yes"/>
      <point x="287" y="668"/>
      <point x="432" y="967"/>
      <point x="651" y="967" type="curve" smooth="yes"/>
      <point x="797" y="967"/>
      <point x="852" y="877"/>
      <point x="852" y="745" type="curve" smooth="yes"/>
      <point x="852" y="430"/>
      <point x="645" y="150"/>
    </contour>
  </outline>
</glyph>
<glyph name="uni0234" format="2">
  <advance width="698"/>
  <unicode hex="0234"/>
  <anchor x="233" y="0" name="bottom"/>
  <anchor x="565" y="1556" name="top"/>
  <outline>
    <contour>
      <point x="20" y="-59" type="line"/>
      <point x="51" y="6"/>
      <point x="86" y="70"/>
      <point x="125" y="113" type="curve"/>
      <point x="160" y="31"/>
      <point x="242" y="-20"/>
      <point x="356" y="-20" type="curve" smooth="yes"/>
      <point x="535" y="-20"/>
      <point x="657" y="80"/>
      <point x="657" y="246" type="curve" smooth="yes"/>
      <point x="657" y="365"/>
      <point x="584" y="471"/>
      <point x="432" y="471" type="curve" smooth="yes"/>
      <point x="397" y="471"/>
      <point x="362" y="465"/>
      <point x="334" y="455" type="curve"/>
      <point x="569" y="1556" type="line"/>
      <point x="389" y="1556" type="line"/>
      <point x="143" y="406" type="line" smooth="yes"/>
      <point x="135" y="371"/>
      <point x="129" y="338"/>
      <point x="121" y="303" type="curve"/>
      <point x="43" y="227"/>
      <point x="-37" y="117"/>
      <point x="-100" y="-14" type="curve"/>
    </contour>
    <contour>
      <point x="377" y="119" type="curve" smooth="yes"/>
      <point x="301" y="119"/>
      <point x="279" y="182"/>
      <point x="279" y="268" type="curve"/>
      <point x="309" y="307"/>
      <point x="350" y="332"/>
      <point x="403" y="332" type="curve" smooth="yes"/>
      <point x="453" y="332"/>
      <point x="496" y="297"/>
      <point x="496" y="238" type="curve" smooth="yes"/>
      <point x="496" y="160"/>
      <point x="442" y="119"/>
    </contour>
  </outline>
</glyph>
<glyph name="uni0238" format="2">
  <advance width="1843"/>
  <unicode hex="0238"/>
  <anchor x="805" y="0" name="bottom"/>
  <anchor x="1137" y="1556" name="top"/>
  <outline>
    <contour>
      <point x="416" y="-20" type="curve" smooth="yes"/>
      <point x="672" y="-20"/>
      <point x="772" y="113"/>
      <point x="856" y="236" type="curve"/>
      <point x="887" y="72"/>
      <point x="1001" y="-20"/>
      <point x="1188" y="-20" type="curve" smooth="yes"/>
      <point x="1540" y="-20"/>
      <point x="1743" y="344"/>
      <point x="1743" y="743" type="curve" smooth="yes"/>
      <point x="1743" y="989"/>
      <point x="1622" y="1116"/>
      <point x="1442" y="1116" type="curve" smooth="yes"/>
      <point x="1288" y="1116"/>
      <point x="1178" y="1014"/>
      <point x="1079" y="893" type="curve"/>
      <point x="1071" y="893" type="line"/>
      <point x="1075" y="899"/>
      <point x="1116" y="1047"/>
      <point x="1147" y="1188" type="curve" smooth="yes"/>
      <point x="1225" y="1556" type="line"/>
      <point x="1044" y="1556" type="line"/>
      <point x="969" y="1198" type="line" smooth="yes"/>
      <point x="948" y="1100"/>
      <point x="936" y="1020"/>
      <point x="924" y="928" type="curve"/>
      <point x="913" y="928" type="line"/>
      <point x="868" y="1028"/>
      <point x="784" y="1116"/>
      <point x="637" y="1116" type="curve" smooth="yes"/>
      <point x="305" y="1116"/>
      <point x="98" y="756"/>
      <point x="98" y="354" type="curve" smooth="yes"/>
      <point x="98" y="104"/>
      <point x="219" y="-20"/>
    </contour>
    <contour>
      <point x="457" y="129" type="curve" smooth="yes"/>
      <point x="342" y="129"/>
      <point x="283" y="203"/>
      <point x="283" y="350" type="curve" smooth="yes"/>
      <point x="283" y="657"/>
      <point x="432" y="967"/>
      <point x="649" y="967" type="curve" smooth="yes"/>
      <point x="784" y="967"/>
      <point x="854" y="866"/>
      <point x="854" y="735" type="curve" smooth="yes"/>
      <point x="854" y="420"/>
      <point x="717" y="129"/>
    </contour>
    <contour>
      <point x="1194" y="129" type="curve" smooth="yes"/>
      <point x="1063" y="129"/>
      <point x="985" y="219"/>
      <point x="985" y="360" type="curve" smooth="yes"/>
      <point x="985" y="684"/>
      <point x="1202" y="967"/>
      <point x="1384" y="967" type="curve" smooth="yes"/>
      <point x="1499" y="967"/>
      <point x="1559" y="893"/>
      <point x="1559" y="745" type="curve" smooth="yes"/>
      <point x="1559" y="438"/>
      <point x="1413" y="129"/>
    </contour>
  </outline>
</glyph>
<glyph name="uni023D" format="2">
  <advance width="979"/>
  <unicode hex="023D"/>
  <anchor x="373" y="0" name="bottom"/>
  <anchor x="684" y="1462" name="top"/>
  <outline>
    <contour>
      <point x="84" y="0" type="line"/>
      <point x="825" y="0" type="line"/>
      <point x="860" y="164" type="line"/>
      <point x="299" y="164" type="line"/>
      <point x="408" y="680" type="line"/>
      <point x="729" y="680" type="line"/>
      <point x="760" y="825" type="line"/>
      <point x="438" y="825" type="line"/>
      <point x="575" y="1462" type="line"/>
      <point x="393" y="1462" type="line"/>
      <point x="258" y="825" type="line"/>
      <point x="94" y="825" type="line"/>
      <point x="63" y="680" type="line"/>
      <point x="227" y="680" type="line"/>
    </contour>
  </outline>
</glyph>
<glyph name="uni0242" format="2">
  <advance width="893"/>
  <unicode hex="0242"/>
  <anchor x="330" y="0" name="bottom"/>
  <anchor x="563" y="1098" name="top"/>
  <outline>
    <contour>
      <point x="129" y="0" type="line"/>
      <point x="307" y="0" type="line"/>
      <point x="346" y="190" type="line"/>
      <point x="643" y="287"/>
      <point x="831" y="459"/>
      <point x="831" y="741" type="curve" smooth="yes"/>
      <point x="831" y="967"/>
      <point x="684" y="1118"/>
      <point x="446" y="1118" type="curve" smooth="yes"/>
      <point x="295" y="1118"/>
      <point x="186" y="1090"/>
      <point x="74" y="1014" type="curve"/>
      <point x="145" y="872" type="line"/>
      <point x="242" y="940"/>
      <point x="322" y="963"/>
      <point x="430" y="963" type="curve" smooth="yes"/>
      <point x="557" y="963"/>
      <point x="647" y="864"/>
      <point x="647" y="731" type="curve" smooth="yes"/>
      <point x="647" y="485"/>
      <point x="408" y="369"/>
      <point x="190" y="295" type="curve"/>
    </contour>
  </outline>
</glyph>
<glyph name="uni0249" format="2">
  <advance width="528"/>
  <unicode hex="0249"/>
  <anchor x="43" y="-492" name="bottom"/>
  <anchor x="469" y="1507" name="top"/>
  <outline>
    <contour>
      <point x="-131" y="-492" type="curve" smooth="yes"/>
      <point x="72" y="-492"/>
      <point x="160" y="-362"/>
      <point x="203" y="-158" type="curve" smooth="yes"/>
      <point x="344" y="508" type="line"/>
      <point x="485" y="508" type="line"/>
      <point x="516" y="653" type="line"/>
      <point x="375" y="653" type="line"/>
      <point x="469" y="1098" type="line"/>
      <point x="291" y="1098" type="line"/>
      <point x="197" y="653" type="line"/>
      <point x="55" y="653" type="line"/>
      <point x="25" y="508" type="line"/>
      <point x="166" y="508" type="line"/>
      <point x="29" y="-141" type="line" smooth="yes"/>
      <point x="0" y="-276"/>
      <point x="-57" y="-342"/>
      <point x="-139" y="-342" type="curve" smooth="yes"/>
      <point x="-184" y="-342"/>
      <point x="-225" y="-332"/>
      <point x="-258" y="-319" type="curve"/>
      <point x="-258" y="-471" type="line"/>
      <point x="-227" y="-483"/>
      <point x="-182" y="-492"/>
    </contour>
    <contour>
      <point x="434" y="1280" type="curve" smooth="yes"/>
      <point x="492" y="1280"/>
      <point x="551" y="1331"/>
      <point x="551" y="1415" type="curve" smooth="yes"/>
      <point x="551" y="1473"/>
      <point x="522" y="1507"/>
      <point x="459" y="1507" type="curve" smooth="yes"/>
      <point x="381" y="1507"/>
      <point x="338" y="1446"/>
      <point x="338" y="1376" type="curve" smooth="yes"/>
      <point x="338" y="1315"/>
      <point x="379" y="1280"/>
    </contour>
  </outline>
</glyph>
<glyph name="uni024E" format="2">
  <advance width="1042"/>
  <unicode hex="024E"/>
  <anchor x="406" y="0" name="bottom"/>
  <anchor x="717" y="1462" name="top"/>
  <outline>
    <contour>
      <point x="307" y="0" type="line"/>
      <point x="492" y="0" type="line"/>
      <point x="604" y="543" type="line"/>
      <point x="944" y="1040" type="line"/>
      <point x="1139" y="1040" type="line"/>
      <point x="1174" y="1200" type="line"/>
      <point x="1053" y="1200" type="line"/>
      <point x="1231" y="1462" type="line"/>
      <point x="1024" y="1462" type="line"/>
      <point x="852" y="1200" type="line"/>
      <point x="432" y="1200" type="line"/>
      <point x="371" y="1462" type="line"/>
      <point x="188" y="1462" type="line"/>
      <point x="256" y="1200" type="line"/>
      <point x="143" y="1200" type="line"/>
      <point x="109" y="1040" type="line"/>
      <point x="297" y="1040" type="line"/>
      <point x="426" y="549" type="line"/>
    </contour>
    <contour>
      <point x="545" y="729" type="line"/>
      <point x="471" y="1040" type="line"/>
      <point x="748" y="1040" type="line"/>
    </contour>
  </outline>
</glyph>
<glyph name="uni027D" format="2">
  <advance width="815"/>
  <unicode hex="027D"/>
  <anchor x="186" y="-492" name="bottom"/>
  <anchor x="524" y="1098" name="top"/>
  <outline>
    <contour>
      <point x="242" y="-492" type="curve" smooth="yes"/>
      <point x="305" y="-492"/>
      <point x="365" y="-477"/>
      <point x="395" y="-459" type="curve"/>
      <point x="395" y="-322" type="line"/>
      <point x="373" y="-332"/>
      <point x="334" y="-344"/>
      <point x="283" y="-344" type="curve" smooth="yes"/>
      <point x="231" y="-344"/>
      <point x="193" y="-317"/>
      <point x="193" y="-246" type="curve" smooth="yes"/>
      <point x="193" y="-217"/>
      <point x="199" y="-182"/>
      <point x="207" y="-145" type="curve" smooth="yes"/>
      <point x="344" y="502" type="line" smooth="yes"/>
      <point x="389" y="719"/>
      <point x="530" y="954"/>
      <point x="735" y="954" type="curve" smooth="yes"/>
      <point x="770" y="954"/>
      <point x="803" y="950"/>
      <point x="840" y="942" type="curve"/>
      <point x="879" y="1104" type="line"/>
      <point x="842" y="1114"/>
      <point x="799" y="1118"/>
      <point x="760" y="1118" type="curve" smooth="yes"/>
      <point x="604" y="1118"/>
      <point x="512" y="1008"/>
      <point x="426" y="895" type="curve"/>
      <point x="416" y="895" type="line"/>
      <point x="438" y="1098" type="line"/>
      <point x="291" y="1098" type="line"/>
      <point x="27" y="-145" type="line" smooth="yes"/>
      <point x="16" y="-190"/>
      <point x="12" y="-223"/>
      <point x="12" y="-266" type="curve" smooth="yes"/>
      <point x="12" y="-432"/>
      <point x="111" y="-492"/>
    </contour>
  </outline>
</glyph>
<glyph name="uni0284" format="2">
  <advance width="530"/>
  <unicode hex="0284"/>
  <anchor x="45" y="-492" name="bottom"/>
  <anchor x="483" y="1567" name="top"/>
  <outline>
    <contour>
      <point x="-129" y="-492" type="curve" smooth="yes"/>
      <point x="70" y="-492"/>
      <point x="166" y="-356"/>
      <point x="213" y="-129" type="curve" smooth="yes"/>
      <point x="346" y="508" type="line"/>
      <point x="492" y="508" type="line"/>
      <point x="522" y="653" type="line"/>
      <point x="377" y="653" type="line"/>
      <point x="489" y="1184" type="line"/>
      <point x="522" y="1337"/>
      <point x="578" y="1417"/>
      <point x="670" y="1417" type="curve" smooth="yes"/>
      <point x="713" y="1417"/>
      <point x="748" y="1407"/>
      <point x="782" y="1395" type="curve"/>
      <point x="782" y="1544" type="line"/>
      <point x="750" y="1556"/>
      <point x="700" y="1567"/>
      <point x="649" y="1567" type="curve" smooth="yes"/>
      <point x="442" y="1567"/>
      <point x="358" y="1423"/>
      <point x="311" y="1204" type="curve" smooth="yes"/>
      <point x="195" y="653" type="line"/>
      <point x="55" y="653" type="line"/>
      <point x="25" y="508" type="line"/>
      <point x="164" y="508" type="line"/>
      <point x="33" y="-109" type="line" smooth="yes"/>
      <point x="0" y="-266"/>
      <point x="-61" y="-342"/>
      <point x="-145" y="-342" type="curve" smooth="yes"/>
      <point x="-188" y="-342"/>
      <point x="-223" y="-332"/>
      <point x="-258" y="-319" type="curve"/>
      <point x="-258" y="-471" type="line"/>
      <point x="-225" y="-483"/>
      <point x="-180" y="-492"/>
    </contour>
  </outline>
</glyph>
<glyph name="eshsquatreversed" format="2">
  <advance width="528"/>
  <unicode hex="0285"/>
  <anchor x="43" y="-492" name="bottom"/>
  <anchor x="381" y="1098" name="top"/>
  <outline>
    <contour>
      <point x="252" y="-492" type="curve" smooth="yes"/>
      <point x="315" y="-492"/>
      <point x="375" y="-477"/>
      <point x="406" y="-459" type="curve"/>
      <point x="406" y="-322" type="line"/>
      <point x="383" y="-332"/>
      <point x="344" y="-344"/>
      <point x="293" y="-344" type="curve" smooth="yes"/>
      <point x="242" y="-344"/>
      <point x="203" y="-317"/>
      <point x="203" y="-246" type="curve" smooth="yes"/>
      <point x="203" y="-217"/>
      <point x="209" y="-182"/>
      <point x="217" y="-143" type="curve" smooth="yes"/>
      <point x="412" y="766" type="line"/>
      <point x="422" y="811"/>
      <point x="426" y="850"/>
      <point x="426" y="893" type="curve" smooth="yes"/>
      <point x="426" y="1059"/>
      <point x="328" y="1118"/>
      <point x="197" y="1118" type="curve" smooth="yes"/>
      <point x="133" y="1118"/>
      <point x="74" y="1104"/>
      <point x="43" y="1085" type="curve"/>
      <point x="43" y="948" type="line"/>
      <point x="66" y="958"/>
      <point x="104" y="971"/>
      <point x="156" y="971" type="curve" smooth="yes"/>
      <point x="207" y="971"/>
      <point x="246" y="944"/>
      <point x="246" y="872" type="curve" smooth="yes"/>
      <point x="246" y="844"/>
      <point x="240" y="809"/>
      <point x="231" y="772" type="curve" smooth="yes"/>
      <point x="37" y="-139" type="line" smooth="yes"/>
      <point x="27" y="-184"/>
      <point x="23" y="-223"/>
      <point x="23" y="-266" type="curve" smooth="yes"/>
      <point x="23" y="-432"/>
      <point x="121" y="-492"/>
    </contour>
  </outline>
</glyph>
<glyph name="glottalturned" format="2">
  <advance width="831"/>
  <unicode hex="0296"/>
  <anchor x="299" y="0" name="bottom"/>
  <anchor x="631" y="1556" name="top"/>
  <outline>
    <contour>
      <point x="272" y="-20" type="curve" smooth="yes"/>
      <point x="551" y="-20"/>
      <point x="750" y="147"/>
      <point x="750" y="444" type="curve" smooth="yes"/>
      <point x="750" y="625"/>
      <point x="684" y="780"/>
      <point x="492" y="895" type="curve"/>
      <point x="631" y="1556" type="line"/>
      <point x="449" y="1556" type="line"/>
      <point x="293" y="815" type="line"/>
      <point x="479" y="735"/>
      <point x="561" y="604"/>
      <point x="561" y="444" type="curve" smooth="yes"/>
      <point x="561" y="246"/>
      <point x="430" y="129"/>
      <point x="272" y="129" type="curve" smooth="yes"/>
      <point x="174" y="129"/>
      <point x="98" y="170"/>
      <point x="29" y="227" type="curve"/>
      <point x="-61" y="98" type="line"/>
      <point x="23" y="27"/>
      <point x="121" y="-20"/>
    </contour>
  </outline>
</glyph>
<glyph name="uni02A4" format="2">
  <advance width="1864"/>
  <unicode hex="02A4"/>
  <anchor x="711" y="-492" name="bottom"/>
  <anchor x="1147" y="1556" name="top"/>
  <outline>
    <contour>
      <point x="1108" y="-492" type="curve" smooth="yes"/>
      <point x="1468" y="-492"/>
      <point x="1677" y="-262"/>
      <point x="1677" y="51" type="curve" smooth="yes"/>
      <point x="1677" y="303"/>
      <point x="1516" y="438"/>
      <point x="1313" y="455" type="curve"/>
      <point x="1808" y="967" type="line"/>
      <point x="1835" y="1098" type="line"/>
      <point x="1124" y="1098" type="line"/>
      <point x="1223" y="1556" type="line"/>
      <point x="1044" y="1556" type="line"/>
      <point x="969" y="1198" type="line" smooth="yes"/>
      <point x="948" y="1100"/>
      <point x="936" y="1020"/>
      <point x="924" y="928" type="curve"/>
      <point x="913" y="928" type="line"/>
      <point x="868" y="1028"/>
      <point x="784" y="1116"/>
      <point x="637" y="1116" type="curve" smooth="yes"/>
      <point x="305" y="1116"/>
      <point x="98" y="756"/>
      <point x="98" y="354" type="curve" smooth="yes"/>
      <point x="98" y="104"/>
      <point x="219" y="-20"/>
      <point x="395" y="-20" type="curve" smooth="yes"/>
      <point x="549" y="-20"/>
      <point x="662" y="80"/>
      <point x="760" y="203" type="curve"/>
      <point x="768" y="203" type="line"/>
      <point x="745" y="0" type="line"/>
      <point x="893" y="0" type="line"/>
      <point x="1094" y="946" type="line"/>
      <point x="1593" y="946" type="line"/>
      <point x="1114" y="449" type="line"/>
      <point x="1087" y="326" type="line"/>
      <point x="1163" y="326" type="line" smooth="yes"/>
      <point x="1370" y="326"/>
      <point x="1497" y="240"/>
      <point x="1497" y="43" type="curve" smooth="yes"/>
      <point x="1497" y="-174"/>
      <point x="1370" y="-344"/>
      <point x="1112" y="-344" type="curve" smooth="yes"/>
      <point x="965" y="-344"/>
      <point x="850" y="-299"/>
      <point x="778" y="-256" type="curve"/>
      <point x="778" y="-422" type="line"/>
      <point x="862" y="-467"/>
      <point x="958" y="-492"/>
    </contour>
    <contour>
      <point x="457" y="129" type="curve" smooth="yes"/>
      <point x="342" y="129"/>
      <point x="283" y="203"/>
      <point x="283" y="350" type="curve" smooth="yes"/>
      <point x="283" y="657"/>
      <point x="432" y="967"/>
      <point x="649" y="967" type="curve" smooth="yes"/>
      <point x="795" y="967"/>
      <point x="854" y="877"/>
      <point x="854" y="745" type="curve" smooth="yes"/>
      <point x="854" y="420"/>
      <point x="637" y="129"/>
    </contour>
  </outline>
</glyph>
<glyph name="caron" format="2">
  <advance width="803"/>
  <unicode hex="02C7"/>
  <outline>
    <contour>
      <point x="467" y="1241" type="curve"/>
      <point x="643" y="1241" type="line"/>
      <point x="702" y="1333"/>
      <point x="862" y="1479"/>
      <point x="932" y="1542" type="curve"/>
      <point x="932" y="1569" type="line"/>
      <point x="815" y="1569" type="line"/>
      <point x="741" y="1522"/>
      <point x="653" y="1456"/>
      <point x="569" y="1382" type="curve"/>
      <point x="516" y="1456"/>
      <point x="461" y="1526"/>
      <point x="408" y="1569" type="curve"/>
      <point x="299" y="1569" type="line"/>
      <point x="299" y="1542" type="line"/>
      <point x="350" y="1462"/>
      <point x="430" y="1346"/>
    </contour>
  </outline>
</glyph>
<glyph name="nottildeabovecomb" format="2">
  <unicode hex="034A"/>
  <anchor x="125" y="1098" name="_top"/>
  <anchor x="188" y="1581" name="top"/>
  <outline>
    <contour>
      <point x="113" y="1165" type="line"/>
      <point x="186" y="1290" type="line"/>
      <point x="225" y="1266"/>
      <point x="268" y="1243"/>
      <point x="317" y="1243" type="curve" smooth="yes"/>
      <point x="434" y="1243"/>
      <point x="512" y="1335"/>
      <point x="557" y="1505" type="curve"/>
      <point x="449" y="1505" type="line"/>
      <point x="416" y="1423"/>
      <point x="389" y="1391"/>
      <point x="330" y="1391" type="curve" smooth="yes"/>
      <point x="307" y="1391"/>
      <point x="281" y="1401"/>
      <point x="260" y="1413" type="curve"/>
      <point x="328" y="1526" type="line"/>
      <point x="236" y="1581" type="line"/>
      <point x="170" y="1466" type="line"/>
      <point x="133" y="1487"/>
      <point x="92" y="1503"/>
      <point x="47" y="1503" type="curve" smooth="yes"/>
      <point x="-72" y="1503"/>
      <point x="-152" y="1411"/>
      <point x="-188" y="1241" type="curve"/>
      <point x="-82" y="1241" type="line"/>
      <point x="-53" y="1317"/>
      <point x="-25" y="1356"/>
      <point x="33" y="1356" type="curve" smooth="yes"/>
      <point x="53" y="1356"/>
      <point x="74" y="1350"/>
      <point x="94" y="1341" type="curve"/>
      <point x="20" y="1221" type="line"/>
    </contour>
  </outline>
</glyph>
<glyph name="almostequaltoabovecomb" format="2">
  <unicode hex="034C"/>
  <anchor x="125" y="1098" name="_top"/>
  <anchor x="215" y="1749" name="top"/>
  <outline>
    <contour>
      <point x="-123" y="1526" type="curve"/>
      <point x="-18" y="1526" type="line"/>
      <point x="12" y="1593"/>
      <point x="41" y="1622"/>
      <point x="98" y="1622" type="curve" smooth="yes"/>
      <point x="135" y="1622"/>
      <point x="172" y="1604"/>
      <point x="215" y="1579" type="curve" smooth="yes"/>
      <point x="264" y="1552"/>
      <point x="315" y="1528"/>
      <point x="371" y="1528" type="curve" smooth="yes"/>
      <point x="483" y="1528"/>
      <point x="561" y="1606"/>
      <point x="602" y="1749" type="curve"/>
      <point x="498" y="1749" type="line"/>
      <point x="463" y="1681"/>
      <point x="438" y="1653"/>
      <point x="381" y="1653" type="curve" smooth="yes"/>
      <point x="344" y="1653"/>
      <point x="301" y="1677"/>
      <point x="254" y="1702" type="curve" smooth="yes"/>
      <point x="209" y="1726"/>
      <point x="164" y="1747"/>
      <point x="111" y="1747" type="curve" smooth="yes"/>
      <point x="-8" y="1747"/>
      <point x="-86" y="1669"/>
    </contour>
    <contour>
      <point x="-182" y="1239" type="curve"/>
      <point x="-78" y="1239" type="line"/>
      <point x="-47" y="1307"/>
      <point x="-18" y="1335"/>
      <point x="39" y="1335" type="curve" smooth="yes"/>
      <point x="76" y="1335"/>
      <point x="113" y="1317"/>
      <point x="156" y="1292" type="curve" smooth="yes"/>
      <point x="205" y="1266"/>
      <point x="256" y="1241"/>
      <point x="311" y="1241" type="curve" smooth="yes"/>
      <point x="424" y="1241"/>
      <point x="502" y="1319"/>
      <point x="543" y="1462" type="curve"/>
      <point x="438" y="1462" type="line"/>
      <point x="403" y="1395"/>
      <point x="379" y="1366"/>
      <point x="322" y="1366" type="curve" smooth="yes"/>
      <point x="285" y="1366"/>
      <point x="242" y="1391"/>
      <point x="195" y="1415" type="curve" smooth="yes"/>
      <point x="150" y="1440"/>
      <point x="104" y="1460"/>
      <point x="51" y="1460" type="curve" smooth="yes"/>
      <point x="-68" y="1460"/>
      <point x="-145" y="1382"/>
    </contour>
  </outline>
</glyph>
<glyph name="doublebrevebelowcomb" format="2">
  <unicode hex="035C"/>
  <anchor x="-565" y="0" name="_bottom"/>
  <anchor x="-115" y="-471" name="bottom"/>
  <outline>
    <contour>
      <point x="-166" y="-471" type="curve" smooth="yes"/>
      <point x="160" y="-471"/>
      <point x="438" y="-350"/>
      <point x="606" y="-86" type="curve"/>
      <point x="457" y="-86" type="line"/>
      <point x="297" y="-252"/>
      <point x="106" y="-326"/>
      <point x="-162" y="-326" type="curve" smooth="yes"/>
      <point x="-467" y="-326"/>
      <point x="-637" y="-236"/>
      <point x="-705" y="-86" type="curve"/>
      <point x="-844" y="-86" type="line"/>
      <point x="-786" y="-340"/>
      <point x="-532" y="-471"/>
    </contour>
  </outline>
</glyph>
<glyph name="breveinverteddoublecomb" format="2">
  <unicode hex="0361"/>
  <anchor x="-373" y="1264" name="_top"/>
  <anchor x="188" y="1753" name="top"/>
  <outline>
    <contour>
      <point x="-541" y="1368" type="curve"/>
      <point x="-391" y="1368" type="line"/>
      <point x="-231" y="1534"/>
      <point x="-41" y="1608"/>
      <point x="227" y="1608" type="curve" smooth="yes"/>
      <point x="532" y="1608"/>
      <point x="702" y="1518"/>
      <point x="770" y="1368" type="curve"/>
      <point x="909" y="1368" type="line"/>
      <point x="852" y="1622"/>
      <point x="598" y="1753"/>
      <point x="231" y="1753" type="curve" smooth="yes"/>
      <point x="-94" y="1753"/>
      <point x="-373" y="1632"/>
    </contour>
  </outline>
</glyph>
<glyph name="heta" format="2">
  <advance width="786"/>
  <unicode hex="0371"/>
  <anchor x="276" y="0" name="bottom"/>
  <anchor x="510" y="1098" name="top"/>
  <outline>
    <contour>
      <point x="57" y="0" type="line"/>
      <point x="238" y="0" type="line"/>
      <point x="342" y="492" type="line"/>
      <point x="668" y="492" type="line"/>
      <point x="700" y="641" type="line"/>
      <point x="375" y="641" type="line"/>
      <point x="469" y="1098" type="line"/>
      <point x="291" y="1098" type="line"/>
    </contour>
  </outline>
</glyph>
<glyph name="dieresistonos" format="2">
  <advance width="926"/>
  <unicode hex="0385"/>
  <anchor x="584" y="1098" name="_top"/>
  <outline>
    <contour>
      <point x="561" y="1389" type="line"/>
      <point x="643" y="1389" type="line"/>
      <point x="748" y="1485"/>
      <point x="854" y="1610"/>
      <point x="915" y="1696" type="curve"/>
      <point x="915" y="1716" type="line"/>
      <point x="715" y="1716" type="line"/>
      <point x="674" y="1618"/>
      <point x="606" y="1491"/>
      <point x="561" y="1411" type="curve"/>
    </contour>
    <contour>
      <point x="393" y="1292" type="curve" smooth="yes"/>
      <point x="442" y="1292"/>
      <point x="496" y="1337"/>
      <point x="496" y="1413" type="curve" smooth="yes"/>
      <point x="496" y="1462"/>
      <point x="471" y="1495"/>
      <point x="414" y="1495" type="curve" smooth="yes"/>
      <point x="346" y="1495"/>
      <point x="307" y="1440"/>
      <point x="307" y="1378" type="curve" smooth="yes"/>
      <point x="307" y="1323"/>
      <point x="344" y="1292"/>
    </contour>
    <contour>
      <point x="872" y="1292" type="curve" smooth="yes"/>
      <point x="922" y="1292"/>
      <point x="975" y="1337"/>
      <point x="975" y="1413" type="curve" smooth="yes"/>
      <point x="975" y="1462"/>
      <point x="948" y="1495"/>
      <point x="893" y="1495" type="curve" smooth="yes"/>
      <point x="825" y="1495"/>
      <point x="786" y="1440"/>
      <point x="786" y="1378" type="curve" smooth="yes"/>
      <point x="786" y="1323"/>
      <point x="823" y="1292"/>
    </contour>
  </outline>
</glyph>
<glyph name="iota" format="2">
  <advance width="637"/>
  <unicode hex="03B9"/>
  <anchor x="203" y="0" name="bottom"/>
  <anchor x="381" y="1098" name="top"/>
  <anchor x="158" y="1098" name="topleft"/>
  <outline>
    <contour>
      <point x="356" y="-20" type="curve" smooth="yes"/>
      <point x="418" y="-20"/>
      <point x="498" y="0"/>
      <point x="532" y="16" type="curve"/>
      <point x="532" y="154" type="line"/>
      <point x="477" y="137"/>
      <point x="436" y="127"/>
      <point x="391" y="127" type="curve" smooth="yes"/>
      <point x="311" y="127"/>
      <point x="287" y="176"/>
      <point x="287" y="242" type="curve" smooth="yes"/>
      <point x="287" y="281"/>
      <point x="295" y="326"/>
      <point x="303" y="362" type="curve" smooth="yes"/>
      <point x="459" y="1098" type="line"/>
      <point x="279" y="1098" type="line"/>
      <point x="125" y="369" type="line" smooth="yes"/>
      <point x="113" y="311"/>
      <point x="104" y="260"/>
      <point x="104" y="219" type="curve" smooth="yes"/>
      <point x="104" y="41"/>
      <point x="213" y="-20"/>
    </contour>
  </outline>
</glyph>
<glyph name="sigma1" format="2">
  <advance width="930"/>
  <unicode hex="03C2"/>
  <anchor x="258" y="-426" name="bottom"/>
  <anchor x="582" y="1098" name="top"/>
  <outline>
    <contour>
      <point x="379" y="-426" type="curve"/>
      <point x="571" y="-426" type="line"/>
      <point x="664" y="-342"/>
      <point x="743" y="-250"/>
      <point x="743" y="-129" type="curve" smooth="yes"/>
      <point x="743" y="27"/>
      <point x="633" y="84"/>
      <point x="508" y="135" type="curve" smooth="yes"/>
      <point x="356" y="195"/>
      <point x="283" y="260"/>
      <point x="283" y="442" type="curve" smooth="yes"/>
      <point x="283" y="668"/>
      <point x="410" y="967"/>
      <point x="668" y="967" type="curve" smooth="yes"/>
      <point x="762" y="967"/>
      <point x="838" y="940"/>
      <point x="893" y="915" type="curve"/>
      <point x="944" y="1065" type="line"/>
      <point x="864" y="1098"/>
      <point x="776" y="1118"/>
      <point x="674" y="1118" type="curve" smooth="yes"/>
      <point x="293" y="1118"/>
      <point x="98" y="752"/>
      <point x="98" y="424" type="curve" smooth="yes"/>
      <point x="98" y="156"/>
      <point x="252" y="55"/>
      <point x="391" y="0" type="curve" smooth="yes"/>
      <point x="532" y="-53"/>
      <point x="565" y="-84"/>
      <point x="565" y="-150" type="curve" smooth="yes"/>
      <point x="565" y="-233"/>
      <point x="502" y="-315"/>
    </contour>
  </outline>
</glyph>
<glyph name="uni03D6" format="2">
  <advance width="1649"/>
  <unicode hex="03D6"/>
  <outline>
    <contour>
      <point x="451" y="-20" type="curve" smooth="yes"/>
      <point x="580" y="-20"/>
      <point x="674" y="49"/>
      <point x="741" y="168" type="curve"/>
      <point x="770" y="51"/>
      <point x="850" y="-20"/>
      <point x="985" y="-20" type="curve" smooth="yes"/>
      <point x="1325" y="-20"/>
      <point x="1458" y="385"/>
      <point x="1458" y="698" type="curve" smooth="yes"/>
      <point x="1458" y="780"/>
      <point x="1450" y="862"/>
      <point x="1432" y="944" type="curve"/>
      <point x="1667" y="944" type="line"/>
      <point x="1700" y="1098" type="line"/>
      <point x="317" y="1098" type="line"/>
      <point x="121" y="1018" type="line"/>
      <point x="106" y="944" type="line"/>
      <point x="373" y="944" type="line"/>
      <point x="236" y="750"/>
      <point x="156" y="528"/>
      <point x="156" y="336" type="curve" smooth="yes"/>
      <point x="156" y="102"/>
      <point x="266" y="-20"/>
    </contour>
    <contour>
      <point x="475" y="129" type="curve" smooth="yes"/>
      <point x="393" y="129"/>
      <point x="340" y="201"/>
      <point x="340" y="338" type="curve" smooth="yes"/>
      <point x="340" y="553"/>
      <point x="438" y="762"/>
      <point x="557" y="944" type="curve"/>
      <point x="1257" y="944" type="line"/>
      <point x="1270" y="870"/>
      <point x="1276" y="786"/>
      <point x="1276" y="709" type="curve" smooth="yes"/>
      <point x="1276" y="420"/>
      <point x="1161" y="129"/>
      <point x="985" y="129" type="curve" smooth="yes"/>
      <point x="905" y="129"/>
      <point x="860" y="186"/>
      <point x="860" y="291" type="curve" smooth="yes"/>
      <point x="860" y="330"/>
      <point x="868" y="385"/>
      <point x="877" y="424" type="curve" smooth="yes"/>
      <point x="907" y="573" type="line"/>
      <point x="733" y="573" type="line"/>
      <point x="696" y="397" type="line" smooth="yes"/>
      <point x="662" y="246"/>
      <point x="596" y="129"/>
    </contour>
  </outline>
</glyph>
<glyph name="uni03FC" format="2">
  <advance width="1174"/>
  <unicode hex="03FC"/>
  <anchor x="367" y="-492" name="bottom"/>
  <anchor x="702" y="1098" name="top"/>
  <outline>
    <contour>
      <point x="-170" y="-319" type="line"/>
      <point x="510" y="-319" type="line"/>
      <point x="541" y="-176" type="line"/>
      <point x="-139" y="-176" type="line"/>
    </contour>
    <component base="rho"/>
  </outline>
</glyph>
<glyph name="afii10037" format="2">
  <advance width="1176"/>
  <unicode hex="0423"/>
  <anchor x="471" y="0" name="bottom"/>
  <anchor x="770" y="1462" name="top"/>
  <outline>
    <contour>
      <point x="170" y="-20" type="curve" smooth="yes"/>
      <point x="379" y="-20"/>
      <point x="516" y="82"/>
      <point x="690" y="365" type="curve" smooth="yes"/>
      <point x="1364" y="1462" type="line"/>
      <point x="1157" y="1462" type="line"/>
      <point x="758" y="780" type="line" smooth="yes"/>
      <point x="711" y="702"/>
      <point x="674" y="625"/>
      <point x="637" y="545" type="curve"/>
      <point x="621" y="635"/>
      <point x="596" y="727"/>
      <point x="571" y="821" type="curve" smooth="yes"/>
      <point x="395" y="1462" type="line"/>
      <point x="211" y="1462" type="line"/>
      <point x="518" y="420" type="line"/>
      <point x="401" y="229"/>
      <point x="313" y="147"/>
      <point x="166" y="147" type="curve" smooth="yes"/>
      <point x="106" y="147"/>
      <point x="47" y="164"/>
      <point x="0" y="186" type="curve"/>
      <point x="0" y="8" type="line"/>
      <point x="37" y="-6"/>
      <point x="109" y="-20"/>
    </contour>
  </outline>
</glyph>
<glyph name="afii10046" format="2">
  <advance width="1141"/>
  <unicode hex="042C"/>
  <anchor x="455" y="0" name="bottom"/>
  <anchor x="766" y="1462" name="top"/>
  <outline>
    <contour>
      <point x="84" y="0" type="line"/>
      <point x="444" y="0" type="line"/>
      <point x="784" y="0"/>
      <point x="1022" y="150"/>
      <point x="1022" y="481" type="curve" smooth="yes"/>
      <point x="1022" y="682"/>
      <point x="920" y="844"/>
      <point x="578" y="844" type="curve" smooth="yes"/>
      <point x="444" y="844" type="line"/>
      <point x="575" y="1462" type="line"/>
      <point x="393" y="1462" type="line"/>
    </contour>
    <contour>
      <point x="299" y="156" type="line"/>
      <point x="412" y="686" type="line"/>
      <point x="578" y="686" type="line" smooth="yes"/>
      <point x="739" y="686"/>
      <point x="834" y="629"/>
      <point x="834" y="467" type="curve" smooth="yes"/>
      <point x="834" y="262"/>
      <point x="715" y="156"/>
      <point x="471" y="156" type="curve" smooth="yes"/>
    </contour>
  </outline>
</glyph>
<glyph name="afii10072" format="2">
  <advance width="1731"/>
  <unicode hex="0436"/>
  <anchor x="750" y="0" name="bottom"/>
  <anchor x="0" y="0" name="bottomright"/>
  <anchor x="983" y="1098" name="top"/>
  <outline>
    <contour>
      <point x="90" y="-20" type="curve" smooth="yes"/>
      <point x="395" y="-20"/>
      <point x="561" y="238"/>
      <point x="616" y="485" type="curve"/>
      <point x="778" y="485" type="line"/>
      <point x="674" y="0" type="line"/>
      <point x="838" y="0" type="line"/>
      <point x="940" y="485" type="line"/>
      <point x="1110" y="485" type="line"/>
      <point x="1106" y="457"/>
      <point x="1106" y="430"/>
      <point x="1106" y="401" type="curve" smooth="yes"/>
      <point x="1106" y="135"/>
      <point x="1225" y="-20"/>
      <point x="1458" y="-20" type="curve" smooth="yes"/>
      <point x="1509" y="-20"/>
      <point x="1563" y="-10"/>
      <point x="1597" y="-4" type="curve"/>
      <point x="1597" y="145" type="line"/>
      <point x="1559" y="135"/>
      <point x="1530" y="129"/>
      <point x="1483" y="129" type="curve" smooth="yes"/>
      <point x="1341" y="129"/>
      <point x="1290" y="246"/>
      <point x="1290" y="406" type="curve" smooth="yes"/>
      <point x="1290" y="659"/>
      <point x="1411" y="967"/>
      <point x="1649" y="967" type="curve" smooth="yes"/>
      <point x="1683" y="967"/>
      <point x="1724" y="963"/>
      <point x="1755" y="954" type="curve"/>
      <point x="1788" y="1100" type="line"/>
      <point x="1739" y="1114"/>
      <point x="1694" y="1118"/>
      <point x="1647" y="1118" type="curve" smooth="yes"/>
      <point x="1333" y="1118"/>
      <point x="1178" y="842"/>
      <point x="1130" y="623" type="curve"/>
      <point x="969" y="623" type="line"/>
      <point x="1071" y="1098" type="line"/>
      <point x="905" y="1098" type="line"/>
      <point x="805" y="623" type="line"/>
      <point x="637" y="623" type="line"/>
      <point x="639" y="645"/>
      <point x="641" y="672"/>
      <point x="641" y="696" type="curve" smooth="yes"/>
      <point x="641" y="961"/>
      <point x="524" y="1118"/>
      <point x="289" y="1118" type="curve" smooth="yes"/>
      <point x="238" y="1118"/>
      <point x="186" y="1108"/>
      <point x="147" y="1100" type="curve"/>
      <point x="147" y="952" type="line"/>
      <point x="186" y="961"/>
      <point x="221" y="967"/>
      <point x="262" y="967" type="curve" smooth="yes"/>
      <point x="403" y="967"/>
      <point x="459" y="850"/>
      <point x="459" y="692" type="curve" smooth="yes"/>
      <point x="459" y="436"/>
      <point x="330" y="129"/>
      <point x="92" y="129" type="curve" smooth="yes"/>
      <point x="59" y="129"/>
      <point x="20" y="135"/>
      <point x="-6" y="143" type="curve"/>
      <point x="-33" y="-4" type="line"/>
      <point x="2" y="-14"/>
      <point x="51" y="-20"/>
    </contour>
  </outline>
</glyph>
<glyph name="afii10089" format="2">
  <advance width="1145"/>
  <unicode hex="0447"/>
  <anchor x="457" y="0" name="bottom"/>
  <anchor x="649" y="1098" name="top"/>
  <outline>
    <contour>
      <point x="668" y="0" type="line"/>
      <point x="852" y="0" type="line"/>
      <point x="1085" y="1098" type="line"/>
      <point x="905" y="1098" type="line"/>
      <point x="881" y="983" type="line" smooth="yes"/>
      <point x="803" y="625"/>
      <point x="631" y="530"/>
      <point x="489" y="530" type="curve" smooth="yes"/>
      <point x="397" y="530"/>
      <point x="340" y="567"/>
      <point x="340" y="676" type="curve" smooth="yes"/>
      <point x="340" y="717"/>
      <point x="346" y="760"/>
      <point x="362" y="831" type="curve" smooth="yes"/>
      <point x="418" y="1098" type="line"/>
      <point x="236" y="1098" type="line"/>
      <point x="182" y="846" type="line" smooth="yes"/>
      <point x="170" y="780"/>
      <point x="158" y="711"/>
      <point x="158" y="659" type="curve" smooth="yes"/>
      <point x="158" y="477"/>
      <point x="254" y="379"/>
      <point x="438" y="379" type="curve" smooth="yes"/>
      <point x="592" y="379"/>
      <point x="711" y="459"/>
      <point x="793" y="567" type="curve"/>
      <point x="801" y="567" type="line"/>
      <point x="780" y="500"/>
      <point x="752" y="406"/>
      <point x="733" y="309" type="curve" smooth="yes"/>
    </contour>
  </outline>
</glyph>
<glyph name="afii10099" format="2">
  <advance width="1186"/>
  <unicode hex="0452"/>
  <anchor x="373" y="-492" name="bottom"/>
  <anchor x="809" y="1556" name="top"/>
  <outline>
    <contour>
      <point x="537" y="-492" type="curve" smooth="yes"/>
      <point x="741" y="-492"/>
      <point x="829" y="-362"/>
      <point x="872" y="-158" type="curve" smooth="yes"/>
      <point x="1040" y="627" type="line" smooth="yes"/>
      <point x="1053" y="688"/>
      <point x="1063" y="741"/>
      <point x="1063" y="795" type="curve" smooth="yes"/>
      <point x="1063" y="981"/>
      <point x="958" y="1077"/>
      <point x="786" y="1077" type="curve" smooth="yes"/>
      <point x="608" y="1077"/>
      <point x="494" y="969"/>
      <point x="418" y="856" type="curve"/>
      <point x="408" y="856" type="line"/>
      <point x="440" y="961"/>
      <point x="459" y="1038"/>
      <point x="479" y="1135" type="curve" smooth="yes"/>
      <point x="502" y="1237" type="line"/>
      <point x="842" y="1237" type="line"/>
      <point x="872" y="1372" type="line"/>
      <point x="526" y="1372" type="line"/>
      <point x="567" y="1556" type="line"/>
      <point x="387" y="1556" type="line"/>
      <point x="348" y="1372" type="line"/>
      <point x="199" y="1372" type="line"/>
      <point x="168" y="1237" type="line"/>
      <point x="319" y="1237" type="line"/>
      <point x="57" y="0" type="line"/>
      <point x="238" y="0" type="line"/>
      <point x="330" y="432" type="line" smooth="yes"/>
      <point x="406" y="793"/>
      <point x="598" y="926"/>
      <point x="737" y="926" type="curve" smooth="yes"/>
      <point x="838" y="926"/>
      <point x="883" y="872"/>
      <point x="883" y="782" type="curve" smooth="yes"/>
      <point x="883" y="750"/>
      <point x="874" y="709"/>
      <point x="862" y="647" type="curve" smooth="yes"/>
      <point x="694" y="-137" type="line" smooth="yes"/>
      <point x="666" y="-272"/>
      <point x="610" y="-340"/>
      <point x="528" y="-340" type="curve" smooth="yes"/>
      <point x="483" y="-340"/>
      <point x="444" y="-332"/>
      <point x="410" y="-317" type="curve"/>
      <point x="410" y="-471" type="line"/>
      <point x="442" y="-483"/>
      <point x="487" y="-492"/>
    </contour>
  </outline>
</glyph>
<glyph name="uni0481" format="2">
  <advance width="928"/>
  <unicode hex="0481"/>
  <anchor x="244" y="-492" name="bottom"/>
  <anchor x="582" y="1098" name="top"/>
  <outline>
    <contour>
      <point x="393" y="-492" type="line"/>
      <point x="573" y="-492" type="line"/>
      <point x="717" y="184" type="line"/>
      <point x="662" y="156"/>
      <point x="596" y="137"/>
      <point x="524" y="137" type="curve" smooth="yes"/>
      <point x="371" y="137"/>
      <point x="283" y="217"/>
      <point x="283" y="385" type="curve"/>
      <point x="283" y="702"/>
      <point x="440" y="967"/>
      <point x="674" y="967" type="curve"/>
      <point x="762" y="967"/>
      <point x="838" y="940"/>
      <point x="893" y="915" type="curve"/>
      <point x="944" y="1065" type="line"/>
      <point x="866" y="1098"/>
      <point x="768" y="1118"/>
      <point x="672" y="1118" type="curve"/>
      <point x="276" y="1118"/>
      <point x="98" y="725"/>
      <point x="98" y="381" type="curve"/>
      <point x="98" y="119"/>
      <point x="256" y="-18"/>
      <point x="494" y="-20" type="curve"/>
    </contour>
  </outline>
</glyph>
<glyph name="psilipneumatacomb-cy" format="2">
  <unicode hex="0486"/>
  <anchor x="-475" y="1098" name="_top"/>
  <anchor x="-403" y="1587" name="top"/>
  <outline>
    <contour>
      <point x="-528" y="1239" type="line"/>
      <point x="-369" y="1280"/>
      <point x="-289" y="1360"/>
      <point x="-289" y="1462" type="curve" smooth="yes"/>
      <point x="-289" y="1538"/>
      <point x="-338" y="1587"/>
      <point x="-416" y="1587" type="curve" smooth="yes"/>
      <point x="-477" y="1587"/>
      <point x="-512" y="1561"/>
      <point x="-512" y="1513" type="curve" smooth="yes"/>
      <point x="-512" y="1470"/>
      <point x="-483" y="1460"/>
      <point x="-453" y="1446" type="curve" smooth="yes"/>
      <point x="-430" y="1438"/>
      <point x="-414" y="1427"/>
      <point x="-414" y="1405" type="curve" smooth="yes"/>
      <point x="-414" y="1374"/>
      <point x="-449" y="1343"/>
      <point x="-528" y="1315" type="curve"/>
    </contour>
  </outline>
</glyph>
<glyph name="uni048B" format="2">
  <advance width="1194"/>
  <unicode hex="048B"/>
  <anchor x="399" y="-381" name="bottom"/>
  <anchor x="813" y="1556" name="top"/>
  <outline>
    <contour>
      <point x="686" y="-381" type="line"/>
      <point x="866" y="-381" type="line"/>
      <point x="1098" y="152" type="line"/>
      <point x="926" y="152" type="line"/>
      <point x="1126" y="1098" type="line"/>
      <point x="948" y="1098" type="line"/>
      <point x="848" y="625" type="line" smooth="yes"/>
      <point x="770" y="264"/>
      <point x="578" y="129"/>
      <point x="438" y="129" type="curve"/>
      <point x="340" y="129"/>
      <point x="295" y="176"/>
      <point x="295" y="270" type="curve"/>
      <point x="295" y="299"/>
      <point x="301" y="348"/>
      <point x="313" y="408" type="curve"/>
      <point x="461" y="1098" type="line"/>
      <point x="279" y="1098" type="line"/>
      <point x="135" y="428" type="line"/>
      <point x="123" y="367"/>
      <point x="113" y="307"/>
      <point x="113" y="252" type="curve"/>
      <point x="113" y="68"/>
      <point x="227" y="-20"/>
      <point x="387" y="-20" type="curve"/>
      <point x="565" y="-20"/>
      <point x="680" y="98"/>
      <point x="756" y="201" type="curve"/>
      <point x="768" y="201" type="line"/>
      <point x="745" y="0" type="line"/>
      <point x="887" y="0" type="line"/>
    </contour>
    <component base="cyrillicbreve" xOffset="12"/>
  </outline>
</glyph>
<glyph name="uni049A" format="2">
  <advance width="1249"/>
  <unicode hex="049A"/>
  <anchor x="428" y="-383" name="bottom"/>
  <anchor x="821" y="1462" name="top"/>
  <outline>
    <contour>
      <point x="852" y="-383" type="line"/>
      <point x="1026" y="-383" type="line"/>
      <point x="1143" y="164" type="line"/>
      <point x="971" y="164" type="line"/>
      <point x="616" y="731" type="line"/>
      <point x="1339" y="1462" type="line"/>
      <point x="1118" y="1462" type="line"/>
      <point x="428" y="752" type="line"/>
      <point x="580" y="1462" type="line"/>
      <point x="395" y="1462" type="line"/>
      <point x="86" y="0" type="line"/>
      <point x="270" y="0" type="line"/>
      <point x="422" y="725" type="line"/>
      <point x="864" y="0" type="line"/>
      <point x="934" y="0" type="line"/>
    </contour>
  </outline>
</glyph>
<glyph name="uni04A5" format="2">
  <advance width="1413"/>
  <unicode hex="04A5"/>
  <anchor x="590" y="0" name="bottom"/>
  <anchor x="823" y="1098" name="top"/>
  <outline>
    <contour>
      <point x="57" y="0" type="line"/>
      <point x="238" y="0" type="line"/>
      <point x="342" y="492" type="line"/>
      <point x="858" y="492" type="line"/>
      <point x="756" y="0" type="line"/>
      <point x="938" y="0" type="line"/>
      <point x="1137" y="944" type="line"/>
      <point x="1485" y="944" type="line"/>
      <point x="1518" y="1098" type="line"/>
      <point x="989" y="1098" type="line"/>
      <point x="891" y="641" type="line"/>
      <point x="375" y="641" type="line"/>
      <point x="469" y="1098" type="line"/>
      <point x="291" y="1098" type="line"/>
    </contour>
  </outline>
</glyph>
<glyph name="uni04A9" format="2">
  <advance width="1229"/>
  <unicode hex="04A9"/>
  <anchor x="498" y="0" name="bottom"/>
  <anchor x="731" y="1098" name="top"/>
  <outline>
    <contour>
      <point x="924" y="-59" type="curve" smooth="yes"/>
      <point x="979" y="-59"/>
      <point x="1036" y="-49"/>
      <point x="1065" y="-39" type="curve"/>
      <point x="1065" y="106" type="line"/>
      <point x="1024" y="94"/>
      <point x="981" y="88"/>
      <point x="950" y="88" type="curve" smooth="yes"/>
      <point x="920" y="88"/>
      <point x="893" y="92"/>
      <point x="866" y="102" type="curve"/>
      <point x="1038" y="211"/>
      <point x="1133" y="408"/>
      <point x="1133" y="602" type="curve" smooth="yes"/>
      <point x="1133" y="776"/>
      <point x="1032" y="868"/>
      <point x="887" y="868" type="curve" smooth="yes"/>
      <point x="637" y="868"/>
      <point x="518" y="633"/>
      <point x="518" y="393" type="curve" smooth="yes"/>
      <point x="518" y="285"/>
      <point x="549" y="195"/>
      <point x="590" y="133" type="curve"/>
      <point x="571" y="129"/>
      <point x="555" y="127"/>
      <point x="524" y="127" type="curve" smooth="yes"/>
      <point x="367" y="127"/>
      <point x="281" y="246"/>
      <point x="281" y="420" type="curve" smooth="yes"/>
      <point x="281" y="672"/>
      <point x="377" y="969"/>
      <point x="651" y="969" type="curve" smooth="yes"/>
      <point x="713" y="969"/>
      <point x="762" y="956"/>
      <point x="797" y="944" type="curve"/>
      <point x="834" y="1092" type="line"/>
      <point x="784" y="1108"/>
      <point x="709" y="1118"/>
      <point x="651" y="1118" type="curve" smooth="yes"/>
      <point x="264" y="1118"/>
      <point x="98" y="758"/>
      <point x="98" y="434" type="curve" smooth="yes"/>
      <point x="98" y="131"/>
      <point x="268" y="-20"/>
      <point x="504" y="-20" type="curve" smooth="yes"/>
      <point x="578" y="-20"/>
      <point x="639" y="-8"/>
      <point x="696" y="12" type="curve"/>
      <point x="764" y="-37"/>
      <point x="842" y="-59"/>
    </contour>
    <contour>
      <point x="752" y="199" type="curve"/>
      <point x="725" y="240"/>
      <point x="702" y="311"/>
      <point x="702" y="399" type="curve" smooth="yes"/>
      <point x="702" y="530"/>
      <point x="754" y="715"/>
      <point x="872" y="715" type="curve" smooth="yes"/>
      <point x="932" y="715"/>
      <point x="954" y="672"/>
      <point x="954" y="598" type="curve" smooth="yes"/>
      <point x="954" y="449"/>
      <point x="879" y="281"/>
    </contour>
  </outline>
</glyph>
<glyph name="uni04AD" format="2">
  <advance width="1821"/>
  <unicode hex="04AD"/>
  <anchor x="713" y="-381" name="bottom"/>
  <anchor x="1028" y="1098" name="top"/>
  <outline>
    <contour>
      <point x="1427" y="-381" type="line"/>
      <point x="1608" y="-381" type="line"/>
      <point x="1720" y="145" type="line"/>
      <point x="1692" y="133"/>
      <point x="1663" y="125"/>
      <point x="1626" y="125" type="curve"/>
      <point x="1587" y="125"/>
      <point x="1561" y="154"/>
      <point x="1561" y="197" type="curve"/>
      <point x="1561" y="217"/>
      <point x="1563" y="242"/>
      <point x="1571" y="276" type="curve"/>
      <point x="1655" y="670" type="line"/>
      <point x="1667" y="729"/>
      <point x="1677" y="782"/>
      <point x="1677" y="836" type="curve"/>
      <point x="1677" y="1022"/>
      <point x="1581" y="1118"/>
      <point x="1411" y="1118" type="curve"/>
      <point x="1243" y="1118"/>
      <point x="1116" y="995"/>
      <point x="1034" y="874" type="curve"/>
      <point x="1026" y="874" type="line"/>
      <point x="1010" y="1026"/>
      <point x="928" y="1118"/>
      <point x="778" y="1118" type="curve"/>
      <point x="610" y="1118"/>
      <point x="500" y="995"/>
      <point x="426" y="895" type="curve"/>
      <point x="416" y="895" type="line"/>
      <point x="438" y="1098" type="line"/>
      <point x="291" y="1098" type="line"/>
      <point x="57" y="0" type="line"/>
      <point x="238" y="0" type="line"/>
      <point x="338" y="473" type="line" smooth="yes"/>
      <point x="414" y="834"/>
      <point x="592" y="967"/>
      <point x="725" y="967" type="curve"/>
      <point x="821" y="967"/>
      <point x="858" y="913"/>
      <point x="858" y="823" type="curve"/>
      <point x="858" y="791"/>
      <point x="852" y="750"/>
      <point x="840" y="688" type="curve"/>
      <point x="694" y="0" type="line"/>
      <point x="874" y="0" type="line"/>
      <point x="979" y="496" type="line" smooth="yes"/>
      <point x="1049" y="825"/>
      <point x="1225" y="967"/>
      <point x="1358" y="967" type="curve"/>
      <point x="1454" y="967"/>
      <point x="1497" y="918"/>
      <point x="1497" y="825" type="curve"/>
      <point x="1497" y="795"/>
      <point x="1491" y="750"/>
      <point x="1479" y="688" type="curve"/>
      <point x="1389" y="274" type="line" smooth="yes"/>
      <point x="1380" y="236"/>
      <point x="1374" y="197"/>
      <point x="1374" y="164" type="curve"/>
      <point x="1374" y="53"/>
      <point x="1438" y="6"/>
      <point x="1507" y="-14" type="curve"/>
    </contour>
  </outline>
</glyph>
<glyph name="uni04B0" format="2">
  <advance width="1042"/>
  <unicode hex="04B0"/>
  <anchor x="406" y="0" name="bottom"/>
  <anchor x="717" y="1462" name="top"/>
  <outline>
    <contour>
      <point x="307" y="0" type="line"/>
      <point x="492" y="0" type="line"/>
      <point x="563" y="344" type="line"/>
      <point x="850" y="344" type="line"/>
      <point x="885" y="508" type="line"/>
      <point x="594" y="508" type="line"/>
      <point x="604" y="543" type="line"/>
      <point x="1231" y="1462" type="line"/>
      <point x="1024" y="1462" type="line"/>
      <point x="545" y="729" type="line"/>
      <point x="371" y="1462" type="line"/>
      <point x="188" y="1462" type="line"/>
      <point x="426" y="549" type="line"/>
      <point x="418" y="508" type="line"/>
      <point x="139" y="508" type="line"/>
      <point x="106" y="344" type="line"/>
      <point x="381" y="344" type="line"/>
    </contour>
  </outline>
</glyph>
<glyph name="uni04BD" format="2">
  <advance width="1227"/>
  <unicode hex="04BD"/>
  <anchor x="684" y="0" name="bottom"/>
  <anchor x="854" y="1098" name="top"/>
  <outline>
    <contour>
      <point x="700" y="-20" type="curve" smooth="yes"/>
      <point x="823" y="-20"/>
      <point x="926" y="8"/>
      <point x="1034" y="59" type="curve"/>
      <point x="1034" y="213" type="line"/>
      <point x="930" y="164"/>
      <point x="838" y="129"/>
      <point x="735" y="129" type="curve" smooth="yes"/>
      <point x="565" y="129"/>
      <point x="489" y="231"/>
      <point x="489" y="399" type="curve" smooth="yes"/>
      <point x="489" y="422"/>
      <point x="492" y="451"/>
      <point x="494" y="475" type="curve"/>
      <point x="528" y="475" type="line" smooth="yes"/>
      <point x="995" y="475"/>
      <point x="1169" y="662"/>
      <point x="1169" y="862" type="curve" smooth="yes"/>
      <point x="1169" y="1036"/>
      <point x="1049" y="1118"/>
      <point x="854" y="1118" type="curve" smooth="yes"/>
      <point x="590" y="1118"/>
      <point x="403" y="891"/>
      <point x="334" y="623" type="curve"/>
      <point x="272" y="623"/>
      <point x="238" y="647"/>
      <point x="238" y="698" type="curve" smooth="yes"/>
      <point x="238" y="743"/>
      <point x="258" y="793"/>
      <point x="281" y="825" type="curve"/>
      <point x="123" y="825" type="line"/>
      <point x="90" y="786"/>
      <point x="74" y="721"/>
      <point x="74" y="676" type="curve" smooth="yes"/>
      <point x="74" y="537"/>
      <point x="170" y="487"/>
      <point x="309" y="477" type="curve"/>
      <point x="305" y="449"/>
      <point x="305" y="420"/>
      <point x="305" y="393" type="curve" smooth="yes"/>
      <point x="305" y="139"/>
      <point x="451" y="-20"/>
    </contour>
    <contour>
      <point x="516" y="621" type="line"/>
      <point x="580" y="842"/>
      <point x="713" y="969"/>
      <point x="844" y="969" type="curve" smooth="yes"/>
      <point x="930" y="969"/>
      <point x="991" y="924"/>
      <point x="991" y="848" type="curve" smooth="yes"/>
      <point x="991" y="674"/>
      <point x="764" y="621"/>
      <point x="532" y="621" type="curve" smooth="yes"/>
    </contour>
  </outline>
</glyph>
<glyph name="uni04CD" format="2">
  <advance width="1743"/>
  <unicode hex="04CD"/>
  <anchor x="674" y="-383" name="bottom"/>
  <anchor x="1067" y="1462" name="top"/>
  <outline>
    <contour>
      <point x="1176" y="-383" type="line"/>
      <point x="1391" y="-383" type="line"/>
      <point x="1642" y="162" type="line"/>
      <point x="1458" y="162" type="line"/>
      <point x="1729" y="1462" type="line"/>
      <point x="1448" y="1462" type="line"/>
      <point x="799" y="268" type="line"/>
      <point x="791" y="268" type="line"/>
      <point x="649" y="1462" type="line"/>
      <point x="391" y="1462" type="line"/>
      <point x="82" y="0" type="line"/>
      <point x="254" y="0" type="line"/>
      <point x="440" y="879" type="line" smooth="yes"/>
      <point x="469" y="1016"/>
      <point x="498" y="1200"/>
      <point x="506" y="1282" type="curve"/>
      <point x="514" y="1282" type="line"/>
      <point x="670" y="0" type="line"/>
      <point x="815" y="0" type="line"/>
      <point x="1520" y="1284" type="line"/>
      <point x="1524" y="1284" type="line"/>
      <point x="1501" y="1202"/>
      <point x="1464" y="1047"/>
      <point x="1425" y="868" type="curve" smooth="yes"/>
      <point x="1241" y="0" type="line"/>
      <point x="1417" y="0" type="line"/>
    </contour>
  </outline>
</glyph>
<glyph name="uni04FE" format="2">
  <advance width="1079"/>
  <unicode hex="04FE"/>
  <anchor x="424" y="0" name="bottom"/>
  <anchor x="735" y="1462" name="top"/>
  <outline>
    <contour>
      <point x="-106" y="0" type="line"/>
      <point x="94" y="0" type="line"/>
      <point x="569" y="633" type="line"/>
      <point x="778" y="0" type="line"/>
      <point x="971" y="0" type="line"/>
      <point x="719" y="692" type="line"/>
      <point x="997" y="692" type="line"/>
      <point x="1032" y="856" type="line"/>
      <point x="766" y="856" type="line"/>
      <point x="1247" y="1462" type="line"/>
      <point x="1047" y="1462" type="line"/>
      <point x="612" y="903" type="line"/>
      <point x="414" y="1462" type="line"/>
      <point x="229" y="1462" type="line"/>
      <point x="457" y="856" type="line"/>
      <point x="186" y="856" type="line"/>
      <point x="152" y="692" type="line"/>
      <point x="424" y="692" type="line"/>
    </contour>
  </outline>
</glyph>
<glyph name="uni0507" format="2">
  <advance width="987"/>
  <unicode hex="0507"/>
  <anchor x="297" y="-379" name="bottom"/>
  <anchor x="610" y="1098" name="top"/>
  <outline>
    <contour>
      <point x="594" y="-379" type="line"/>
      <point x="774" y="-379" type="line"/>
      <point x="887" y="152" type="line"/>
      <point x="733" y="152" type="line"/>
      <point x="750" y="227" type="line" smooth="yes"/>
      <point x="756" y="260"/>
      <point x="768" y="313"/>
      <point x="768" y="362" type="curve" smooth="yes"/>
      <point x="768" y="475"/>
      <point x="698" y="551"/>
      <point x="582" y="569" type="curve"/>
      <point x="582" y="573" type="line"/>
      <point x="754" y="614"/>
      <point x="842" y="715"/>
      <point x="842" y="860" type="curve" smooth="yes"/>
      <point x="842" y="1030"/>
      <point x="709" y="1118"/>
      <point x="502" y="1118" type="curve" smooth="yes"/>
      <point x="385" y="1118"/>
      <point x="272" y="1090"/>
      <point x="154" y="1034" type="curve"/>
      <point x="209" y="897" type="line"/>
      <point x="307" y="938"/>
      <point x="391" y="967"/>
      <point x="487" y="967" type="curve" smooth="yes"/>
      <point x="608" y="967"/>
      <point x="659" y="909"/>
      <point x="659" y="829" type="curve" smooth="yes"/>
      <point x="659" y="686"/>
      <point x="524" y="645"/>
      <point x="379" y="645" type="curve" smooth="yes"/>
      <point x="270" y="645" type="line"/>
      <point x="240" y="494" type="line"/>
      <point x="401" y="494" type="line"/>
      <point x="528" y="494"/>
      <point x="590" y="457"/>
      <point x="590" y="352" type="curve" smooth="yes"/>
      <point x="590" y="317"/>
      <point x="582" y="274"/>
      <point x="573" y="238" type="curve" smooth="yes"/>
      <point x="522" y="0" type="line"/>
      <point x="674" y="0" type="line"/>
    </contour>
  </outline>
</glyph>
<glyph name="uni0508" format="2">
  <advance width="1851"/>
  <unicode hex="0508"/>
  <anchor x="809" y="0" name="bottom"/>
  <anchor x="1120" y="1462" name="top"/>
  <outline>
    <contour>
      <point x="61" y="-23" type="curve" smooth="yes"/>
      <point x="301" y="-23"/>
      <point x="395" y="135"/>
      <point x="487" y="395" type="curve" smooth="yes"/>
      <point x="569" y="631"/>
      <point x="676" y="1030"/>
      <point x="748" y="1298" type="curve"/>
      <point x="1077" y="1298" type="line"/>
      <point x="903" y="481" type="line" smooth="yes"/>
      <point x="879" y="365"/>
      <point x="877" y="324"/>
      <point x="877" y="283" type="curve" smooth="yes"/>
      <point x="877" y="76"/>
      <point x="1022" y="-20"/>
      <point x="1214" y="-20" type="curve" smooth="yes"/>
      <point x="1444" y="-20"/>
      <point x="1577" y="84"/>
      <point x="1636" y="365" type="curve" smooth="yes"/>
      <point x="1739" y="848" type="line"/>
      <point x="1559" y="848" type="line"/>
      <point x="1464" y="389" type="line" smooth="yes"/>
      <point x="1425" y="217"/>
      <point x="1364" y="141"/>
      <point x="1225" y="141" type="curve" smooth="yes"/>
      <point x="1112" y="141"/>
      <point x="1059" y="195"/>
      <point x="1059" y="297" type="curve" smooth="yes"/>
      <point x="1059" y="328"/>
      <point x="1063" y="371"/>
      <point x="1083" y="465" type="curve" smooth="yes"/>
      <point x="1296" y="1462" type="line"/>
      <point x="612" y="1462" type="line"/>
      <point x="524" y="1135"/>
      <point x="406" y="696"/>
      <point x="317" y="446" type="curve" smooth="yes"/>
      <point x="229" y="201"/>
      <point x="158" y="139"/>
      <point x="37" y="139" type="curve" smooth="yes"/>
      <point x="0" y="139"/>
      <point x="-39" y="150"/>
      <point x="-66" y="160" type="curve"/>
      <point x="-66" y="0" type="line"/>
      <point x="-39" y="-12"/>
      <point x="4" y="-23"/>
    </contour>
  </outline>
</glyph>
<glyph name="uni0515" format="2">
  <advance width="1585"/>
  <unicode hex="0515"/>
  <anchor x="676" y="0" name="bottom"/>
  <anchor x="909" y="1098" name="top"/>
  <outline>
    <contour>
      <point x="-6" y="-14" type="curve" smooth="yes"/>
      <point x="233" y="-14"/>
      <point x="313" y="172"/>
      <point x="432" y="510" type="curve"/>
      <point x="551" y="856"/>
      <point x="596" y="956"/>
      <point x="766" y="956" type="curve" smooth="yes"/>
      <point x="786" y="956"/>
      <point x="805" y="954"/>
      <point x="821" y="952" type="curve"/>
      <point x="995" y="565" type="line"/>
      <point x="520" y="0" type="line"/>
      <point x="729" y="0" type="line"/>
      <point x="1067" y="426" type="line"/>
      <point x="1253" y="0" type="line"/>
      <point x="1436" y="0" type="line"/>
      <point x="1184" y="557" type="line"/>
      <point x="1640" y="1098" type="line"/>
      <point x="1432" y="1098" type="line"/>
      <point x="1110" y="692" type="line"/>
      <point x="942" y="1094" type="line"/>
      <point x="895" y="1102"/>
      <point x="846" y="1108"/>
      <point x="795" y="1108" type="curve" smooth="yes"/>
      <point x="475" y="1108"/>
      <point x="401" y="936"/>
      <point x="274" y="571" type="curve"/>
      <point x="170" y="264"/>
      <point x="109" y="143"/>
      <point x="-23" y="143" type="curve" smooth="yes"/>
      <point x="-49" y="143"/>
      <point x="-72" y="147"/>
      <point x="-90" y="156" type="curve"/>
      <point x="-90" y="0" type="line"/>
      <point x="-74" y="-6"/>
      <point x="-41" y="-14"/>
    </contour>
  </outline>
</glyph>
<glyph name="uni052A" format="2">
  <advance width="2576"/>
  <unicode hex="052A"/>
  <anchor x="1085" y="-383" name="bottom"/>
  <anchor x="1479" y="1462" name="top"/>
  <outline>
    <contour>
      <point x="999" y="682" type="line"/>
      <point x="1745" y="682" type="line"/>
      <point x="1780" y="844" type="line"/>
      <point x="1034" y="844" type="line"/>
    </contour>
    <component base="afii10021"/>
    <component base="afii10028" xOffset="1425"/>
  </outline>
</glyph>
<glyph name="uni1AB2" format="2">
  <unicode hex="1AB2"/>
  <anchor x="100" y="1098" name="_top"/>
  <anchor x="182" y="1673" name="top"/>
  <outline>
    <contour>
      <point x="-31" y="1247" type="curve"/>
      <point x="49" y="1247"/>
      <point x="123" y="1307"/>
      <point x="176" y="1395" type="curve"/>
      <point x="233" y="1292"/>
      <point x="303" y="1247"/>
      <point x="387" y="1247" type="curve"/>
      <point x="504" y="1247"/>
      <point x="584" y="1346"/>
      <point x="584" y="1458" type="curve"/>
      <point x="584" y="1585"/>
      <point x="504" y="1669"/>
      <point x="387" y="1669" type="curve"/>
      <point x="301" y="1669"/>
      <point x="227" y="1612"/>
      <point x="176" y="1526" type="curve"/>
      <point x="121" y="1624"/>
      <point x="47" y="1673"/>
      <point x="-31" y="1673" type="curve"/>
      <point x="-150" y="1673"/>
      <point x="-229" y="1579"/>
      <point x="-229" y="1462" type="curve"/>
      <point x="-229" y="1333"/>
      <point x="-145" y="1247"/>
    </contour>
    <contour>
      <point x="-20" y="1348" type="curve"/>
      <point x="-90" y="1348"/>
      <point x="-127" y="1401"/>
      <point x="-127" y="1460" type="curve"/>
      <point x="-127" y="1526"/>
      <point x="-86" y="1575"/>
      <point x="-23" y="1575" type="curve"/>
      <point x="35" y="1575"/>
      <point x="76" y="1538"/>
      <point x="117" y="1462" type="curve"/>
      <point x="74" y="1384"/>
      <point x="31" y="1348"/>
    </contour>
    <contour>
      <point x="377" y="1346" type="curve"/>
      <point x="322" y="1346"/>
      <point x="279" y="1382"/>
      <point x="238" y="1458" type="curve"/>
      <point x="283" y="1536"/>
      <point x="324" y="1571"/>
      <point x="375" y="1571" type="curve"/>
      <point x="438" y="1571"/>
      <point x="481" y="1524"/>
      <point x="481" y="1460" type="curve"/>
      <point x="481" y="1395"/>
      <point x="440" y="1346"/>
    </contour>
  </outline>
</glyph>
<glyph name="uni1C81" format="2">
  <advance width="1190"/>
  <unicode hex="1C81"/>
  <anchor x="375" y="-492" name="bottom"/>
  <anchor x="713" y="1098" name="top"/>
  <outline>
    <contour>
      <point x="1100" y="1098" type="line"/>
      <point x="522" y="1098" type="line"/>
      <point x="453" y="788"/>
      <point x="293" y="471"/>
      <point x="55" y="233" type="curve"/>
      <point x="-33" y="233" type="line"/>
      <point x="-186" y="-492" type="line"/>
      <point x="-14" y="-492" type="line"/>
      <point x="106" y="82" type="line"/>
      <point x="870" y="82" type="line"/>
      <point x="750" y="-492" type="line"/>
      <point x="924" y="-492" type="line"/>
      <point x="1077" y="233" type="line"/>
      <point x="918" y="233" type="line"/>
    </contour>
    <contour>
      <point x="897" y="956" type="line"/>
      <point x="743" y="233" type="line"/>
      <point x="248" y="233" type="line"/>
      <point x="428" y="414"/>
      <point x="582" y="702"/>
      <point x="655" y="956" type="curve"/>
    </contour>
  </outline>
</glyph>
<glyph name="uni1D00" format="2">
  <advance width="993"/>
  <unicode hex="1D00"/>
  <anchor x="381" y="0" name="bottom"/>
  <anchor x="614" y="1098" name="top"/>
  <outline>
    <contour>
      <point x="-102" y="0" type="line"/>
      <point x="90" y="0" type="line"/>
      <point x="279" y="330" type="line"/>
      <point x="635" y="330" type="line"/>
      <point x="684" y="0" type="line"/>
      <point x="864" y="0" type="line"/>
      <point x="696" y="1102" type="line"/>
      <point x="532" y="1102" type="line"/>
    </contour>
    <contour>
      <point x="360" y="479" type="line"/>
      <point x="522" y="768" type="line" smooth="yes"/>
      <point x="535" y="788"/>
      <point x="555" y="834"/>
      <point x="567" y="864" type="curve"/>
      <point x="573" y="864" type="line"/>
      <point x="573" y="829"/>
      <point x="578" y="780"/>
      <point x="582" y="752" type="curve" smooth="yes"/>
      <point x="618" y="479" type="line"/>
    </contour>
  </outline>
</glyph>
<glyph name="uni1D08" format="2">
  <advance width="909"/>
  <unicode hex="1D08"/>
  <anchor x="338" y="0" name="bottom"/>
  <anchor x="551" y="1098" name="top"/>
  <outline>
    <contour>
      <point x="336" y="-14" type="curve" smooth="yes"/>
      <point x="569" y="-14"/>
      <point x="733" y="94"/>
      <point x="733" y="293" type="curve" smooth="yes"/>
      <point x="733" y="403"/>
      <point x="682" y="489"/>
      <point x="563" y="520" type="curve"/>
      <point x="563" y="528" type="line"/>
      <point x="772" y="563"/>
      <point x="889" y="668"/>
      <point x="889" y="825" type="curve" smooth="yes"/>
      <point x="889" y="983"/>
      <point x="776" y="1112"/>
      <point x="516" y="1112" type="curve" smooth="yes"/>
      <point x="401" y="1112"/>
      <point x="295" y="1092"/>
      <point x="178" y="1057" type="curve"/>
      <point x="178" y="893" type="line"/>
      <point x="307" y="936"/>
      <point x="416" y="963"/>
      <point x="516" y="963" type="curve" smooth="yes"/>
      <point x="633" y="963"/>
      <point x="711" y="909"/>
      <point x="711" y="811" type="curve" smooth="yes"/>
      <point x="711" y="682"/>
      <point x="563" y="604"/>
      <point x="348" y="604" type="curve" smooth="yes"/>
      <point x="276" y="604" type="line"/>
      <point x="246" y="453" type="line"/>
      <point x="369" y="453" type="line" smooth="yes"/>
      <point x="481" y="453"/>
      <point x="565" y="401"/>
      <point x="565" y="297" type="curve" smooth="yes"/>
      <point x="565" y="184"/>
      <point x="471" y="125"/>
      <point x="336" y="125" type="curve" smooth="yes"/>
      <point x="242" y="125"/>
      <point x="139" y="164"/>
      <point x="82" y="215" type="curve"/>
      <point x="-27" y="98" type="line"/>
      <point x="80" y="23"/>
      <point x="203" y="-14"/>
    </contour>
  </outline>
</glyph>
<glyph name="uni1D19" format="2">
  <advance width="1018"/>
  <unicode hex="1D19"/>
  <anchor x="393" y="0" name="bottom"/>
  <anchor x="627" y="1098" name="top"/>
  <outline>
    <contour>
      <point x="-72" y="0" type="line"/>
      <point x="143" y="0" type="line"/>
      <point x="492" y="442" type="line"/>
      <point x="639" y="442" type="line"/>
      <point x="547" y="0" type="line"/>
      <point x="727" y="0" type="line"/>
      <point x="958" y="1098" type="line"/>
      <point x="631" y="1098" type="line" smooth="yes"/>
      <point x="346" y="1098"/>
      <point x="172" y="975"/>
      <point x="172" y="752" type="curve" smooth="yes"/>
      <point x="172" y="600"/>
      <point x="250" y="530"/>
      <point x="328" y="492" type="curve"/>
    </contour>
    <contour>
      <point x="547" y="586" type="line" smooth="yes"/>
      <point x="426" y="586"/>
      <point x="360" y="643"/>
      <point x="360" y="756" type="curve" smooth="yes"/>
      <point x="360" y="903"/>
      <point x="457" y="952"/>
      <point x="623" y="952" type="curve" smooth="yes"/>
      <point x="748" y="952" type="line"/>
      <point x="670" y="586" type="line"/>
    </contour>
  </outline>
</glyph>
<glyph name="uni1D1B" format="2">
  <advance width="877"/>
  <unicode hex="1D1B"/>
  <anchor x="322" y="0" name="bottom"/>
  <anchor x="555" y="1098" name="top"/>
  <outline>
    <contour>
      <point x="231" y="0" type="line"/>
      <point x="416" y="0" type="line"/>
      <point x="616" y="950" type="line"/>
      <point x="928" y="950" type="line"/>
      <point x="958" y="1098" type="line"/>
      <point x="150" y="1098" type="line"/>
      <point x="119" y="950" type="line"/>
      <point x="432" y="950" type="line"/>
    </contour>
  </outline>
</glyph>
<glyph name="uni1D2A" format="2">
  <advance width="1247"/>
  <unicode hex="1D2A"/>
  <outline>
    <contour>
      <point x="418" y="0" type="line"/>
      <point x="596" y="0" type="line"/>
      <point x="664" y="324" type="line"/>
      <point x="987" y="324"/>
      <point x="1124" y="449"/>
      <point x="1184" y="731" type="curve" smooth="yes"/>
      <point x="1262" y="1098" type="line"/>
      <point x="1077" y="1098" type="line"/>
      <point x="999" y="729" type="line" smooth="yes"/>
      <point x="963" y="553"/>
      <point x="862" y="473"/>
      <point x="696" y="469" type="curve"/>
      <point x="829" y="1098" type="line"/>
      <point x="647" y="1098" type="line"/>
      <point x="514" y="469" type="line"/>
      <point x="379" y="471"/>
      <point x="315" y="522"/>
      <point x="315" y="639" type="curve" smooth="yes"/>
      <point x="315" y="666"/>
      <point x="319" y="700"/>
      <point x="326" y="733" type="curve" smooth="yes"/>
      <point x="401" y="1098" type="line"/>
      <point x="219" y="1098" type="line"/>
      <point x="141" y="729" type="line" smooth="yes"/>
      <point x="133" y="694"/>
      <point x="129" y="662"/>
      <point x="129" y="629" type="curve" smooth="yes"/>
      <point x="129" y="467"/>
      <point x="225" y="336"/>
      <point x="485" y="324" type="curve"/>
    </contour>
  </outline>
</glyph>
<glyph name="uni1D6B" format="2">
  <advance width="1733"/>
  <unicode hex="1D6B"/>
  <outline>
    <contour>
      <point x="500" y="-20" type="curve" smooth="yes"/>
      <point x="672" y="-20"/>
      <point x="786" y="41"/>
      <point x="866" y="164" type="curve"/>
      <point x="930" y="45"/>
      <point x="1042" y="-20"/>
      <point x="1206" y="-20" type="curve" smooth="yes"/>
      <point x="1346" y="-20"/>
      <point x="1434" y="12"/>
      <point x="1538" y="59" type="curve"/>
      <point x="1538" y="213" type="line"/>
      <point x="1430" y="160"/>
      <point x="1341" y="129"/>
      <point x="1239" y="129" type="curve" smooth="yes"/>
      <point x="1071" y="129"/>
      <point x="991" y="231"/>
      <point x="991" y="399" type="curve" smooth="yes"/>
      <point x="991" y="422"/>
      <point x="993" y="451"/>
      <point x="995" y="475" type="curve"/>
      <point x="1030" y="475" type="line" smooth="yes"/>
      <point x="1481" y="475"/>
      <point x="1671" y="647"/>
      <point x="1671" y="862" type="curve" smooth="yes"/>
      <point x="1671" y="1022"/>
      <point x="1565" y="1118"/>
      <point x="1358" y="1118" type="curve" smooth="yes"/>
      <point x="1268" y="1118"/>
      <point x="1182" y="1085"/>
      <point x="1106" y="1022" type="curve"/>
      <point x="1122" y="1098" type="line"/>
      <point x="946" y="1098" type="line"/>
      <point x="813" y="481" type="line" smooth="yes"/>
      <point x="762" y="244"/>
      <point x="676" y="127"/>
      <point x="514" y="127" type="curve" smooth="yes"/>
      <point x="373" y="127"/>
      <point x="313" y="215"/>
      <point x="313" y="356" type="curve" smooth="yes"/>
      <point x="313" y="397"/>
      <point x="319" y="444"/>
      <point x="330" y="496" type="curve" smooth="yes"/>
      <point x="459" y="1098" type="line"/>
      <point x="276" y="1098" type="line"/>
      <point x="150" y="489" type="line" smooth="yes"/>
      <point x="139" y="436"/>
      <point x="133" y="389"/>
      <point x="133" y="342" type="curve" smooth="yes"/>
      <point x="133" y="121"/>
      <point x="252" y="-20"/>
    </contour>
    <contour>
      <point x="1022" y="621" type="line"/>
      <point x="1081" y="842"/>
      <point x="1217" y="969"/>
      <point x="1348" y="969" type="curve" smooth="yes"/>
      <point x="1448" y="969"/>
      <point x="1495" y="918"/>
      <point x="1495" y="848" type="curve" smooth="yes"/>
      <point x="1495" y="680"/>
      <point x="1282" y="621"/>
      <point x="1036" y="621" type="curve" smooth="yes"/>
    </contour>
  </outline>
</glyph>
<glyph name="uni1D6D" format="2">
  <advance width="1186"/>
  <unicode hex="1D6D"/>
  <outline>
    <contour>
      <point x="395" y="-20" type="curve" smooth="yes"/>
      <point x="549" y="-20"/>
      <point x="662" y="80"/>
      <point x="760" y="203" type="curve"/>
      <point x="768" y="203" type="line"/>
      <point x="745" y="0" type="line"/>
      <point x="893" y="0" type="line"/>
      <point x="1147" y="1198" type="line"/>
      <point x="1163" y="1190"/>
      <point x="1184" y="1186"/>
      <point x="1202" y="1186" type="curve" smooth="yes"/>
      <point x="1319" y="1186"/>
      <point x="1397" y="1278"/>
      <point x="1442" y="1448" type="curve"/>
      <point x="1333" y="1448" type="line"/>
      <point x="1300" y="1366"/>
      <point x="1274" y="1329"/>
      <point x="1214" y="1329" type="curve" smooth="yes"/>
      <point x="1202" y="1329"/>
      <point x="1188" y="1331"/>
      <point x="1176" y="1337" type="curve"/>
      <point x="1223" y="1556" type="line"/>
      <point x="1044" y="1556" type="line"/>
      <point x="1020" y="1438" type="line"/>
      <point x="1006" y="1444"/>
      <point x="987" y="1446"/>
      <point x="973" y="1446" type="curve" smooth="yes"/>
      <point x="854" y="1446"/>
      <point x="774" y="1354"/>
      <point x="737" y="1184" type="curve"/>
      <point x="844" y="1184" type="line"/>
      <point x="870" y="1253"/>
      <point x="901" y="1303"/>
      <point x="958" y="1303" type="curve" smooth="yes"/>
      <point x="969" y="1303"/>
      <point x="983" y="1300"/>
      <point x="991" y="1298" type="curve"/>
      <point x="967" y="1190" type="line" smooth="yes"/>
      <point x="944" y="1092"/>
      <point x="936" y="1020"/>
      <point x="924" y="928" type="curve"/>
      <point x="913" y="928" type="line"/>
      <point x="868" y="1028"/>
      <point x="784" y="1116"/>
      <point x="637" y="1116" type="curve" smooth="yes"/>
      <point x="305" y="1116"/>
      <point x="98" y="756"/>
      <point x="98" y="354" type="curve" smooth="yes"/>
      <point x="98" y="104"/>
      <point x="219" y="-20"/>
    </contour>
    <contour>
      <point x="457" y="129" type="curve" smooth="yes"/>
      <point x="342" y="129"/>
      <point x="283" y="203"/>
      <point x="283" y="350" type="curve" smooth="yes"/>
      <point x="283" y="657"/>
      <point x="432" y="967"/>
      <point x="649" y="967" type="curve" smooth="yes"/>
      <point x="795" y="967"/>
      <point x="854" y="877"/>
      <point x="854" y="745" type="curve" smooth="yes"/>
      <point x="854" y="420"/>
      <point x="637" y="129"/>
    </contour>
  </outline>
</glyph>
<glyph name="uni1D77" format="2">
  <advance width="1186"/>
  <unicode hex="1D77"/>
  <outline>
    <contour>
      <point x="547" y="-20" type="curve" smooth="yes"/>
      <point x="881" y="-20"/>
      <point x="1085" y="346"/>
      <point x="1085" y="743" type="curve" smooth="yes"/>
      <point x="1085" y="989"/>
      <point x="965" y="1118"/>
      <point x="786" y="1118" type="curve" smooth="yes"/>
      <point x="633" y="1118"/>
      <point x="518" y="1016"/>
      <point x="424" y="895" type="curve"/>
      <point x="416" y="895" type="line"/>
      <point x="430" y="946"/>
      <point x="453" y="1034"/>
      <point x="467" y="1096" type="curve" smooth="yes"/>
      <point x="485" y="1174" type="line" smooth="yes"/>
      <point x="530" y="1364"/>
      <point x="639" y="1440"/>
      <point x="809" y="1440" type="curve" smooth="yes"/>
      <point x="926" y="1440"/>
      <point x="1061" y="1397"/>
      <point x="1133" y="1354" type="curve"/>
      <point x="1133" y="1520" type="line"/>
      <point x="1055" y="1561"/>
      <point x="936" y="1589"/>
      <point x="803" y="1589" type="curve" smooth="yes"/>
      <point x="541" y="1589"/>
      <point x="371" y="1470"/>
      <point x="305" y="1161" type="curve" smooth="yes"/>
      <point x="55" y="0" type="line"/>
      <point x="193" y="0" type="line"/>
      <point x="260" y="170" type="line"/>
      <point x="268" y="170" type="line"/>
      <point x="313" y="70"/>
      <point x="399" y="-20"/>
    </contour>
    <contour>
      <point x="532" y="131" type="curve" smooth="yes"/>
      <point x="387" y="131"/>
      <point x="332" y="221"/>
      <point x="332" y="352" type="curve" smooth="yes"/>
      <point x="332" y="668"/>
      <point x="543" y="969"/>
      <point x="727" y="969" type="curve" smooth="yes"/>
      <point x="840" y="969"/>
      <point x="901" y="895"/>
      <point x="901" y="748" type="curve" smooth="yes"/>
      <point x="901" y="440"/>
      <point x="752" y="131"/>
    </contour>
  </outline>
</glyph>
<glyph name="uni1D82" format="2">
  <advance width="856"/>
  <unicode hex="1D82"/>
  <outline>
    <contour>
      <point x="-98" y="-492" type="curve" smooth="yes"/>
      <point x="98" y="-492"/>
      <point x="193" y="-356"/>
      <point x="242" y="-129" type="curve" smooth="yes"/>
      <point x="291" y="109" type="line"/>
      <point x="551" y="109" type="line"/>
      <point x="496" y="-139" type="line" smooth="yes"/>
      <point x="479" y="-215"/>
      <point x="442" y="-250"/>
      <point x="373" y="-250" type="curve" smooth="yes"/>
      <point x="334" y="-250"/>
      <point x="301" y="-240"/>
      <point x="283" y="-231" type="curve"/>
      <point x="283" y="-381" type="line"/>
      <point x="307" y="-393"/>
      <point x="358" y="-406"/>
      <point x="406" y="-406" type="curve" smooth="yes"/>
      <point x="549" y="-406"/>
      <point x="627" y="-328"/>
      <point x="664" y="-156" type="curve" smooth="yes"/>
      <point x="750" y="252" type="line"/>
      <point x="322" y="252" type="line"/>
      <point x="471" y="961" type="line"/>
      <point x="707" y="961" type="line"/>
      <point x="733" y="1098" type="line"/>
      <point x="498" y="1098" type="line"/>
      <point x="522" y="1202" type="line" smooth="yes"/>
      <point x="559" y="1372"/>
      <point x="616" y="1419"/>
      <point x="723" y="1419" type="curve" smooth="yes"/>
      <point x="776" y="1419"/>
      <point x="821" y="1405"/>
      <point x="860" y="1391" type="curve"/>
      <point x="907" y="1528" type="line"/>
      <point x="862" y="1548"/>
      <point x="782" y="1567"/>
      <point x="715" y="1567" type="curve" smooth="yes"/>
      <point x="512" y="1567"/>
      <point x="406" y="1483"/>
      <point x="342" y="1202" type="curve" smooth="yes"/>
      <point x="319" y="1104" type="line"/>
      <point x="115" y="1036" type="line"/>
      <point x="100" y="961" type="line"/>
      <point x="291" y="961" type="line"/>
      <point x="66" y="-109" type="line" smooth="yes"/>
      <point x="33" y="-260"/>
      <point x="-16" y="-342"/>
      <point x="-115" y="-342" type="curve" smooth="yes"/>
      <point x="-158" y="-342"/>
      <point x="-193" y="-332"/>
      <point x="-229" y="-319" type="curve"/>
      <point x="-229" y="-471" type="line"/>
      <point x="-195" y="-483"/>
      <point x="-152" y="-492"/>
    </contour>
  </outline>
</glyph>
<glyph name="uni1D8E" format="2">
  <advance width="911"/>
  <unicode hex="1D8E"/>
  <outline>
    <contour>
      <point x="408" y="-406" type="curve" smooth="yes"/>
      <point x="551" y="-406"/>
      <point x="631" y="-328"/>
      <point x="666" y="-156" type="curve" smooth="yes"/>
      <point x="723" y="135" type="line"/>
      <point x="201" y="135" type="line"/>
      <point x="870" y="952" type="line"/>
      <point x="899" y="1098" type="line"/>
      <point x="233" y="1098" type="line"/>
      <point x="205" y="963" type="line"/>
      <point x="676" y="963" type="line"/>
      <point x="-6" y="123" type="line"/>
      <point x="-31" y="0" type="line"/>
      <point x="526" y="0" type="line"/>
      <point x="498" y="-139" type="line" smooth="yes"/>
      <point x="481" y="-215"/>
      <point x="444" y="-250"/>
      <point x="375" y="-250" type="curve" smooth="yes"/>
      <point x="336" y="-250"/>
      <point x="303" y="-240"/>
      <point x="285" y="-231" type="curve"/>
      <point x="285" y="-381" type="line"/>
      <point x="309" y="-393"/>
      <point x="360" y="-406"/>
    </contour>
  </outline>
</glyph>
<glyph name="dottedgrave" format="2">
  <unicode hex="1DC0"/>
  <anchor x="121" y="1098" name="_top"/>
  <anchor x="203" y="1645" name="top"/>
  <outline>
    <contour>
      <point x="199" y="1305" type="curve"/>
      <point x="279" y="1305" type="line"/>
      <point x="283" y="1329" type="line"/>
      <point x="268" y="1409"/>
      <point x="256" y="1538"/>
      <point x="254" y="1632" type="curve"/>
      <point x="80" y="1632" type="line"/>
      <point x="76" y="1612" type="line"/>
      <point x="98" y="1526"/>
      <point x="147" y="1401"/>
    </contour>
    <contour>
      <point x="-66" y="1292" type="curve" smooth="yes"/>
      <point x="-16" y="1292"/>
      <point x="37" y="1337"/>
      <point x="37" y="1413" type="curve" smooth="yes"/>
      <point x="37" y="1462"/>
      <point x="12" y="1495"/>
      <point x="-45" y="1495" type="curve" smooth="yes"/>
      <point x="-113" y="1495"/>
      <point x="-152" y="1440"/>
      <point x="-152" y="1378" type="curve" smooth="yes"/>
      <point x="-152" y="1323"/>
      <point x="-115" y="1292"/>
    </contour>
    <contour>
      <point x="446" y="1442" type="curve" smooth="yes"/>
      <point x="496" y="1442"/>
      <point x="549" y="1487"/>
      <point x="549" y="1563" type="curve" smooth="yes"/>
      <point x="549" y="1612"/>
      <point x="522" y="1645"/>
      <point x="467" y="1645" type="curve" smooth="yes"/>
      <point x="399" y="1645"/>
      <point x="360" y="1589"/>
      <point x="360" y="1528" type="curve" smooth="yes"/>
      <point x="360" y="1473"/>
      <point x="397" y="1442"/>
    </contour>
  </outline>
</glyph>
<glyph name="dottedacute" format="2">
  <unicode hex="1DC1"/>
  <anchor x="106" y="1098" name="_top"/>
  <anchor x="188" y="1645" name="top"/>
  <outline>
    <contour>
      <point x="33" y="1305" type="line"/>
      <point x="125" y="1305" type="line"/>
      <point x="201" y="1401"/>
      <point x="285" y="1520"/>
      <point x="340" y="1612" type="curve"/>
      <point x="340" y="1632" type="line"/>
      <point x="160" y="1632" type="line"/>
      <point x="123" y="1532"/>
      <point x="72" y="1413"/>
      <point x="33" y="1329" type="curve"/>
    </contour>
    <contour>
      <point x="-80" y="1292" type="curve" smooth="yes"/>
      <point x="-31" y="1292"/>
      <point x="23" y="1337"/>
      <point x="23" y="1413" type="curve" smooth="yes"/>
      <point x="23" y="1462"/>
      <point x="-2" y="1495"/>
      <point x="-59" y="1495" type="curve" smooth="yes"/>
      <point x="-127" y="1495"/>
      <point x="-166" y="1440"/>
      <point x="-166" y="1378" type="curve" smooth="yes"/>
      <point x="-166" y="1323"/>
      <point x="-129" y="1292"/>
    </contour>
    <contour>
      <point x="432" y="1442" type="curve" smooth="yes"/>
      <point x="481" y="1442"/>
      <point x="535" y="1487"/>
      <point x="535" y="1563" type="curve" smooth="yes"/>
      <point x="535" y="1612"/>
      <point x="508" y="1645"/>
      <point x="453" y="1645" type="curve" smooth="yes"/>
      <point x="385" y="1645"/>
      <point x="346" y="1589"/>
      <point x="346" y="1528" type="curve" smooth="yes"/>
      <point x="346" y="1473"/>
      <point x="383" y="1442"/>
    </contour>
  </outline>
</glyph>
<glyph name="macronacutecomb" format="2">
  <unicode hex="1DC4"/>
  <anchor x="127" y="1098" name="_top"/>
  <anchor x="193" y="1524" name="top"/>
  <outline>
    <contour>
      <point x="-119" y="1241" type="line"/>
      <point x="211" y="1241" type="line"/>
      <point x="496" y="1395" type="line"/>
      <point x="426" y="1524" type="line"/>
      <point x="174" y="1386" type="line"/>
      <point x="-119" y="1386" type="line"/>
    </contour>
  </outline>
</glyph>
<glyph name="acutemacron" format="2">
  <unicode hex="1DC7"/>
  <anchor x="104" y="1098" name="_top"/>
  <anchor x="164" y="1503" name="top"/>
  <outline>
    <contour>
      <point x="-78" y="1221" type="line"/>
      <point x="174" y="1358" type="line"/>
      <point x="467" y="1358" type="line"/>
      <point x="467" y="1503" type="line"/>
      <point x="137" y="1503" type="line"/>
      <point x="-147" y="1350" type="line"/>
    </contour>
  </outline>
</glyph>
<glyph name="arrowheadleftabovecomb" format="2">
  <unicode hex="1DFE"/>
  <anchor x="113" y="1098" name="_top"/>
  <anchor x="184" y="1618" name="top"/>
  <outline>
    <contour>
      <point x="326" y="1208" type="curve"/>
      <point x="348" y="1208" type="line"/>
      <point x="348" y="1311" type="line"/>
      <point x="293" y="1346"/>
      <point x="236" y="1376"/>
      <point x="160" y="1413" type="curve"/>
      <point x="236" y="1450"/>
      <point x="299" y="1481"/>
      <point x="348" y="1513" type="curve"/>
      <point x="348" y="1618" type="line"/>
      <point x="326" y="1618" type="line"/>
      <point x="246" y="1575"/>
      <point x="109" y="1509"/>
      <point x="12" y="1485" type="curve"/>
      <point x="12" y="1346" type="line"/>
      <point x="109" y="1317"/>
      <point x="246" y="1249"/>
    </contour>
  </outline>
</glyph>
<glyph name="V-middleWelsh" format="2">
  <advance width="1360"/>
  <unicode hex="1EFC"/>
  <anchor x="563" y="0" name="bottom"/>
  <anchor x="874" y="1462" name="top"/>
  <outline>
    <contour>
      <point x="618" y="-20" type="curve" smooth="yes"/>
      <point x="1036" y="-20"/>
      <point x="1266" y="299"/>
      <point x="1266" y="670" type="curve" smooth="yes"/>
      <point x="1266" y="903"/>
      <point x="1120" y="1087"/>
      <point x="899" y="1087" type="curve" smooth="yes"/>
      <point x="831" y="1087"/>
      <point x="774" y="1073"/>
      <point x="727" y="1057" type="curve"/>
      <point x="696" y="913" type="line"/>
      <point x="729" y="930"/>
      <point x="791" y="936"/>
      <point x="846" y="936" type="curve" smooth="yes"/>
      <point x="983" y="936"/>
      <point x="1067" y="838"/>
      <point x="1067" y="659" type="curve" smooth="yes"/>
      <point x="1067" y="385"/>
      <point x="909" y="141"/>
      <point x="635" y="141" type="curve" smooth="yes"/>
      <point x="416" y="141"/>
      <point x="328" y="303"/>
      <point x="328" y="510" type="curve" smooth="yes"/>
      <point x="328" y="913"/>
      <point x="496" y="1194"/>
      <point x="936" y="1376" type="curve"/>
      <point x="817" y="1475" type="line"/>
      <point x="438" y="1380"/>
      <point x="127" y="1032"/>
      <point x="127" y="506" type="curve" smooth="yes"/>
      <point x="127" y="193"/>
      <point x="289" y="-20"/>
    </contour>
  </outline>
</glyph>
<glyph name="uni1FFE" format="2">
  <advance width="528"/>
  <unicode hex="1FFE"/>
  <anchor x="379" y="1098" name="_top"/>
  <anchor x="444" y="1585" name="top"/>
  <outline>
    <contour>
      <point x="502" y="1221" type="curve"/>
      <point x="518" y="1296" type="line"/>
      <point x="459" y="1303"/>
      <point x="426" y="1333"/>
      <point x="426" y="1374" type="curve" smooth="yes"/>
      <point x="426" y="1380"/>
      <point x="426" y="1386"/>
      <point x="428" y="1393" type="curve" smooth="yes"/>
      <point x="496" y="1397"/>
      <point x="549" y="1432"/>
      <point x="549" y="1501" type="curve" smooth="yes"/>
      <point x="549" y="1556"/>
      <point x="512" y="1585"/>
      <point x="463" y="1585" type="curve" smooth="yes"/>
      <point x="373" y="1585"/>
      <point x="332" y="1503"/>
      <point x="332" y="1403" type="curve" smooth="yes"/>
      <point x="332" y="1300"/>
      <point x="395" y="1233"/>
    </contour>
  </outline>
</glyph>
<glyph name="quoteright" format="2">
  <advance width="356"/>
  <unicode hex="2019"/>
  <outline>
    <contour>
      <point x="123" y="961" type="curve"/>
      <point x="260" y="961" type="line"/>
      <point x="358" y="1110"/>
      <point x="465" y="1294"/>
      <point x="530" y="1440" type="curve"/>
      <point x="522" y="1462" type="line"/>
      <point x="326" y="1462" type="line"/>
      <point x="279" y="1321"/>
      <point x="195" y="1122"/>
    </contour>
  </outline>
</glyph>
<glyph name="caret" format="2">
  <advance width="817"/>
  <unicode hex="2038"/>
  <outline>
    <contour>
      <point x="-180" y="-492" type="line"/>
      <point x="-49" y="-492" type="line"/>
      <point x="305" y="8" type="line"/>
      <point x="440" y="-492" type="line"/>
      <point x="555" y="-492" type="line"/>
      <point x="369" y="166" type="line"/>
      <point x="287" y="166" type="line"/>
    </contour>
  </outline>
</glyph>
<glyph name="tironiansignet" format="2">
  <advance width="1065"/>
  <unicode hex="204A"/>
  <outline>
    <contour>
      <point x="915" y="0" type="line"/>
      <point x="1053" y="0" type="line"/>
      <point x="1053" y="1100" type="line"/>
      <point x="74" y="1100" type="line"/>
      <point x="74" y="963" type="line"/>
      <point x="915" y="963" type="line"/>
    </contour>
  </outline>
</glyph>
<glyph name="peseta" format="2">
  <advance width="1509"/>
  <unicode hex="20A7"/>
  <outline>
    <contour>
      <point x="55" y="0" type="line"/>
      <point x="231" y="0" type="line"/>
      <point x="354" y="571" type="line"/>
      <point x="406" y="571" type="line" smooth="yes"/>
      <point x="823" y="571"/>
      <point x="1012" y="784"/>
      <point x="1012" y="1090" type="curve" smooth="yes"/>
      <point x="1012" y="1317"/>
      <point x="879" y="1462"/>
      <point x="582" y="1462" type="curve" smooth="yes"/>
      <point x="367" y="1462" type="line"/>
    </contour>
    <contour>
      <point x="389" y="725" type="line"/>
      <point x="508" y="1305" type="line"/>
      <point x="559" y="1305" type="line" smooth="yes"/>
      <point x="737" y="1305"/>
      <point x="827" y="1229"/>
      <point x="827" y="1067" type="curve" smooth="yes"/>
      <point x="827" y="909"/>
      <point x="741" y="725"/>
      <point x="422" y="725" type="curve" smooth="yes"/>
    </contour>
    <contour>
      <point x="1176" y="-20" type="curve" smooth="yes"/>
      <point x="1243" y="-20"/>
      <point x="1305" y="-6"/>
      <point x="1350" y="14" type="curve"/>
      <point x="1350" y="152" type="line"/>
      <point x="1315" y="139"/>
      <point x="1270" y="127"/>
      <point x="1225" y="127" type="curve" smooth="yes"/>
      <point x="1174" y="127"/>
      <point x="1145" y="158"/>
      <point x="1145" y="207" type="curve" smooth="yes"/>
      <point x="1145" y="233"/>
      <point x="1149" y="270"/>
      <point x="1161" y="332" type="curve" smooth="yes"/>
      <point x="1245" y="709" type="line"/>
      <point x="1446" y="709" type="line"/>
      <point x="1473" y="846" type="line"/>
      <point x="1272" y="846" type="line"/>
      <point x="1319" y="1055" type="line"/>
      <point x="1208" y="1055" type="line"/>
      <point x="1106" y="868" type="line"/>
      <point x="940" y="791" type="line"/>
      <point x="924" y="709" type="line"/>
      <point x="1073" y="709" type="line"/>
      <point x="995" y="344" type="line" smooth="yes"/>
      <point x="977" y="262"/>
      <point x="969" y="211"/>
      <point x="969" y="172" type="curve" smooth="yes"/>
      <point x="969" y="63"/>
      <point x="1028" y="-20"/>
    </contour>
  </outline>
</glyph>
<glyph name="uni20AD" format="2">
  <advance width="1151"/>
  <unicode hex="20AD"/>
  <anchor x="508" y="0" name="bottom"/>
  <anchor x="823" y="1462" name="top"/>
  <anchor x="1305" y="1462" name="topright"/>
  <outline>
    <contour>
      <point x="63" y="684" type="line"/>
      <point x="1049" y="684" type="line"/>
      <point x="1079" y="819" type="line"/>
      <point x="94" y="819" type="line"/>
    </contour>
    <contour>
      <point x="84" y="0" type="line"/>
      <point x="266" y="0" type="line"/>
      <point x="389" y="584" type="line"/>
      <point x="559" y="709" type="line"/>
      <point x="844" y="0" type="line"/>
      <point x="1044" y="0" type="line"/>
      <point x="698" y="819" type="line"/>
      <point x="1333" y="1462" type="line"/>
      <point x="1112" y="1462" type="line"/>
      <point x="551" y="887" type="line"/>
      <point x="424" y="752" type="line"/>
      <point x="575" y="1462" type="line"/>
      <point x="393" y="1462" type="line"/>
    </contour>
  </outline>
</glyph>
<glyph name="uni20AE" format="2">
  <advance width="1026"/>
  <unicode hex="20AE"/>
  <outline>
    <contour>
      <point x="311" y="0" type="line"/>
      <point x="496" y="0" type="line"/>
      <point x="590" y="449" type="line"/>
      <point x="926" y="657" type="line"/>
      <point x="868" y="766" type="line"/>
      <point x="625" y="614" type="line"/>
      <point x="668" y="813" type="line"/>
      <point x="1004" y="1022" type="line"/>
      <point x="948" y="1130" type="line"/>
      <point x="702" y="977" type="line"/>
      <point x="772" y="1300" type="line"/>
      <point x="1174" y="1300" type="line"/>
      <point x="1206" y="1462" type="line"/>
      <point x="219" y="1462" type="line"/>
      <point x="184" y="1300" type="line"/>
      <point x="586" y="1300" type="line"/>
      <point x="489" y="846" type="line"/>
      <point x="166" y="645" type="line"/>
      <point x="221" y="537" type="line"/>
      <point x="455" y="682" type="line"/>
      <point x="414" y="483" type="line"/>
      <point x="88" y="281" type="line"/>
      <point x="143" y="172" type="line"/>
      <point x="379" y="317" type="line"/>
    </contour>
  </outline>
</glyph>
<glyph name="Lscript" format="2">
  <advance width="1706"/>
  <unicode hex="2112"/>
  <outline>
    <contour>
      <point x="289" y="-20" type="curve" smooth="yes"/>
      <point x="397" y="-20"/>
      <point x="520" y="2"/>
      <point x="637" y="68" type="curve"/>
      <point x="725" y="18"/>
      <point x="817" y="-20"/>
      <point x="922" y="-20" type="curve" smooth="yes"/>
      <point x="1124" y="-20"/>
      <point x="1294" y="170"/>
      <point x="1368" y="315" type="curve"/>
      <point x="1333" y="330" type="line"/>
      <point x="1233" y="145"/>
      <point x="1069" y="20"/>
      <point x="934" y="20" type="curve" smooth="yes"/>
      <point x="868" y="20"/>
      <point x="784" y="57"/>
      <point x="694" y="104" type="curve"/>
      <point x="803" y="182"/>
      <point x="903" y="301"/>
      <point x="973" y="483" type="curve" smooth="yes"/>
      <point x="1012" y="588" type="line"/>
      <point x="1376" y="725"/>
      <point x="1651" y="1137"/>
      <point x="1651" y="1333" type="curve" smooth="yes"/>
      <point x="1651" y="1417"/>
      <point x="1602" y="1483"/>
      <point x="1485" y="1483" type="curve" smooth="yes"/>
      <point x="1176" y="1483"/>
      <point x="928" y="993"/>
      <point x="745" y="582" type="curve"/>
      <point x="621" y="590"/>
      <point x="418" y="643"/>
      <point x="418" y="883" type="curve" smooth="yes"/>
      <point x="418" y="1171"/>
      <point x="653" y="1446"/>
      <point x="971" y="1446" type="curve" smooth="yes"/>
      <point x="1024" y="1446"/>
      <point x="1085" y="1440"/>
      <point x="1147" y="1427" type="curve"/>
      <point x="1155" y="1464" type="line"/>
      <point x="1094" y="1477"/>
      <point x="1036" y="1483"/>
      <point x="971" y="1483" type="curve" smooth="yes"/>
      <point x="618" y="1483"/>
      <point x="307" y="1227"/>
      <point x="307" y="936" type="curve" smooth="yes"/>
      <point x="307" y="801"/>
      <point x="367" y="563"/>
      <point x="729" y="545" type="curve"/>
      <point x="717" y="518"/>
      <point x="705" y="492"/>
      <point x="694" y="465" type="curve"/>
      <point x="643" y="346"/>
      <point x="602" y="248"/>
      <point x="557" y="176" type="curve"/>
      <point x="444" y="233"/>
      <point x="328" y="285"/>
      <point x="223" y="285" type="curve" smooth="yes"/>
      <point x="123" y="285"/>
      <point x="23" y="244"/>
      <point x="23" y="147" type="curve" smooth="yes"/>
      <point x="23" y="41"/>
      <point x="150" y="-20"/>
    </contour>
    <contour>
      <point x="279" y="16" type="curve" smooth="yes"/>
      <point x="195" y="16"/>
      <point x="59" y="57"/>
      <point x="59" y="147" type="curve" smooth="yes"/>
      <point x="59" y="221"/>
      <point x="147" y="248"/>
      <point x="221" y="248" type="curve" smooth="yes"/>
      <point x="332" y="248"/>
      <point x="430" y="193"/>
      <point x="528" y="133" type="curve"/>
      <point x="471" y="55"/>
      <point x="397" y="16"/>
    </contour>
    <contour>
      <point x="1030" y="639" type="curve"/>
      <point x="1167" y="1034"/>
      <point x="1278" y="1446"/>
      <point x="1481" y="1446" type="curve" smooth="yes"/>
      <point x="1532" y="1446"/>
      <point x="1571" y="1405"/>
      <point x="1571" y="1343" type="curve" smooth="yes"/>
      <point x="1571" y="1147"/>
      <point x="1413" y="915"/>
      <point x="1288" y="805" type="curve" smooth="yes"/>
      <point x="1208" y="735"/>
      <point x="1120" y="678"/>
    </contour>
  </outline>
</glyph>
<glyph name="trademark" format="2">
  <advance width="1583"/>
  <unicode hex="2122"/>
  <outline>
    <contour>
      <point x="666" y="741" type="line"/>
      <point x="788" y="741" type="line"/>
      <point x="788" y="1169" type="line" smooth="yes"/>
      <point x="788" y="1186"/>
      <point x="784" y="1253"/>
      <point x="782" y="1296" type="curve"/>
      <point x="791" y="1296" type="line"/>
      <point x="987" y="741" type="line"/>
      <point x="1096" y="741" type="line"/>
      <point x="1303" y="1296" type="line"/>
      <point x="1311" y="1296" type="line"/>
      <point x="1309" y="1264"/>
      <point x="1305" y="1182"/>
      <point x="1305" y="1159" type="curve" smooth="yes"/>
      <point x="1305" y="741" type="line"/>
      <point x="1436" y="741" type="line"/>
      <point x="1436" y="1462" type="line"/>
      <point x="1249" y="1462" type="line"/>
      <point x="1051" y="907" type="line"/>
      <point x="858" y="1462" type="line"/>
      <point x="666" y="1462" type="line"/>
    </contour>
    <contour>
      <point x="242" y="741" type="line"/>
      <point x="371" y="741" type="line"/>
      <point x="371" y="1352" type="line"/>
      <point x="580" y="1352" type="line"/>
      <point x="580" y="1462" type="line"/>
      <point x="35" y="1462" type="line"/>
      <point x="35" y="1352" type="line"/>
      <point x="242" y="1352" type="line"/>
    </contour>
  </outline>
</glyph>
<glyph name="lozenge" format="2">
  <advance width="1194"/>
  <unicode hex="25CA"/>
  <outline>
    <contour>
      <point x="598" y="0" type="line"/>
      <point x="674" y="0" type="line"/>
      <point x="1126" y="737" type="line"/>
      <point x="674" y="1475" type="line"/>
      <point x="598" y="1475" type="line"/>
      <point x="147" y="735" type="line"/>
    </contour>
    <contour>
      <point x="637" y="221" type="line"/>
      <point x="330" y="737" type="line"/>
      <point x="637" y="1251" type="line"/>
      <point x="944" y="737" type="line"/>
    </contour>
  </outline>
</glyph>
<glyph name="uni2C64" format="2">
  <advance width="1174"/>
  <unicode hex="2C64"/>
  <anchor x="367" y="-492" name="bottom"/>
  <anchor x="782" y="1462" name="top"/>
  <outline>
    <contour>
      <point x="276" y="-492" type="curve" smooth="yes"/>
      <point x="317" y="-492"/>
      <point x="377" y="-481"/>
      <point x="406" y="-465" type="curve"/>
      <point x="406" y="-309" type="line"/>
      <point x="379" y="-322"/>
      <point x="350" y="-330"/>
      <point x="317" y="-330" type="curve" smooth="yes"/>
      <point x="264" y="-330"/>
      <point x="223" y="-305"/>
      <point x="223" y="-246" type="curve" smooth="yes"/>
      <point x="223" y="-225"/>
      <point x="225" y="-197"/>
      <point x="231" y="-166" type="curve" smooth="yes"/>
      <point x="393" y="604" type="line"/>
      <point x="633" y="604" type="line"/>
      <point x="842" y="0" type="line"/>
      <point x="1042" y="0" type="line"/>
      <point x="801" y="645" type="line"/>
      <point x="1065" y="719"/>
      <point x="1165" y="881"/>
      <point x="1165" y="1092" type="curve" smooth="yes"/>
      <point x="1165" y="1335"/>
      <point x="1016" y="1462"/>
      <point x="715" y="1462" type="curve" smooth="yes"/>
      <point x="393" y="1462" type="line"/>
      <point x="49" y="-164" type="line" smooth="yes"/>
      <point x="41" y="-203"/>
      <point x="35" y="-244"/>
      <point x="35" y="-270" type="curve" smooth="yes"/>
      <point x="35" y="-432"/>
      <point x="141" y="-492"/>
    </contour>
    <contour>
      <point x="426" y="760" type="line"/>
      <point x="543" y="1303" type="line"/>
      <point x="698" y="1303" type="line" smooth="yes"/>
      <point x="883" y="1303"/>
      <point x="977" y="1245"/>
      <point x="977" y="1079" type="curve" smooth="yes"/>
      <point x="977" y="891"/>
      <point x="858" y="760"/>
      <point x="586" y="760" type="curve" smooth="yes"/>
    </contour>
  </outline>
</glyph>
<glyph name="uni2C6D" format="2">
  <advance width="1489"/>
  <unicode hex="2C6D"/>
  <anchor x="629" y="0" name="bottom"/>
  <anchor x="940" y="1462" name="top"/>
  <outline>
    <contour>
      <point x="625" y="-20" type="curve" smooth="yes"/>
      <point x="834" y="-20"/>
      <point x="952" y="76"/>
      <point x="1049" y="203" type="curve"/>
      <point x="1057" y="203" type="line"/>
      <point x="1040" y="0" type="line"/>
      <point x="1186" y="0" type="line"/>
      <point x="1495" y="1462" type="line"/>
      <point x="1346" y="1462" type="line"/>
      <point x="1272" y="1257" type="line"/>
      <point x="1264" y="1257" type="line"/>
      <point x="1194" y="1378"/>
      <point x="1077" y="1485"/>
      <point x="877" y="1485" type="curve" smooth="yes"/>
      <point x="385" y="1485"/>
      <point x="147" y="1006"/>
      <point x="147" y="537" type="curve" smooth="yes"/>
      <point x="147" y="199"/>
      <point x="332" y="-20"/>
    </contour>
    <contour>
      <point x="666" y="139" type="curve" smooth="yes"/>
      <point x="453" y="139"/>
      <point x="342" y="313"/>
      <point x="342" y="549" type="curve" smooth="yes"/>
      <point x="342" y="897"/>
      <point x="502" y="1323"/>
      <point x="874" y="1323" type="curve" smooth="yes"/>
      <point x="1075" y="1323"/>
      <point x="1204" y="1202"/>
      <point x="1204" y="1012" type="curve" smooth="yes"/>
      <point x="1204" y="946"/>
      <point x="1190" y="872"/>
      <point x="1176" y="805" type="curve" smooth="yes"/>
      <point x="1128" y="586" type="line" smooth="yes"/>
      <point x="1081" y="369"/>
      <point x="946" y="139"/>
    </contour>
  </outline>
</glyph>
<glyph name="uni2C71" format="2">
  <advance width="979"/>
  <unicode hex="2C71"/>
  <anchor x="373" y="0" name="bottom"/>
  <anchor x="606" y="1098" name="top"/>
  <outline>
    <contour>
      <point x="225" y="0" type="line"/>
      <point x="451" y="0" type="line"/>
      <point x="901" y="860" type="line" smooth="yes"/>
      <point x="942" y="938"/>
      <point x="975" y="971"/>
      <point x="1018" y="971" type="curve" smooth="yes"/>
      <point x="1038" y="971"/>
      <point x="1057" y="967"/>
      <point x="1067" y="963" type="curve"/>
      <point x="1104" y="1094" type="line"/>
      <point x="1077" y="1108"/>
      <point x="1028" y="1118"/>
      <point x="985" y="1118" type="curve" smooth="yes"/>
      <point x="877" y="1118"/>
      <point x="819" y="1071"/>
      <point x="756" y="948" type="curve" smooth="yes"/>
      <point x="500" y="451" type="line"/>
      <point x="455" y="362"/>
      <point x="397" y="233"/>
      <point x="371" y="160" type="curve"/>
      <point x="362" y="160" type="line"/>
      <point x="362" y="227"/>
      <point x="354" y="362"/>
      <point x="344" y="453" type="curve" smooth="yes"/>
      <point x="279" y="1098" type="line"/>
      <point x="98" y="1098" type="line"/>
    </contour>
  </outline>
</glyph>
<glyph name="uni2C75" format="2">
  <advance width="1030"/>
  <unicode hex="2C75"/>
  <anchor x="399" y="0" name="bottom"/>
  <anchor x="711" y="1462" name="top"/>
  <outline>
    <contour>
      <point x="84" y="0" type="line"/>
      <point x="266" y="0" type="line"/>
      <point x="410" y="682" type="line"/>
      <point x="987" y="682" type="line"/>
      <point x="1022" y="844" type="line"/>
      <point x="444" y="844" type="line"/>
      <point x="575" y="1462" type="line"/>
      <point x="393" y="1462" type="line"/>
    </contour>
  </outline>
</glyph>
<glyph name="uni2C76" format="2">
  <advance width="889"/>
  <unicode hex="2C76"/>
  <anchor x="328" y="0" name="bottom"/>
  <anchor x="561" y="1098" name="top"/>
  <outline>
    <contour>
      <point x="57" y="0" type="line"/>
      <point x="238" y="0" type="line"/>
      <point x="342" y="489" type="line"/>
      <point x="834" y="489" type="line"/>
      <point x="866" y="641" type="line"/>
      <point x="373" y="641" type="line"/>
      <point x="471" y="1098" type="line"/>
      <point x="291" y="1098" type="line"/>
    </contour>
  </outline>
</glyph>
<glyph name="uni2C77" format="2">
  <advance width="1391"/>
  <unicode hex="2C77"/>
  <anchor x="580" y="0" name="bottom"/>
  <anchor x="813" y="1098" name="top"/>
  <outline>
    <contour>
      <point x="592" y="-20" type="curve" smooth="yes"/>
      <point x="1110" y="-20"/>
      <point x="1292" y="383"/>
      <point x="1292" y="745" type="curve" smooth="yes"/>
      <point x="1292" y="979"/>
      <point x="1192" y="1116"/>
      <point x="995" y="1116" type="curve" smooth="yes"/>
      <point x="782" y="1116"/>
      <point x="684" y="979"/>
      <point x="637" y="760" type="curve" smooth="yes"/>
      <point x="504" y="133" type="line"/>
      <point x="383" y="150"/>
      <point x="276" y="215"/>
      <point x="276" y="436" type="curve" smooth="yes"/>
      <point x="276" y="655"/>
      <point x="365" y="825"/>
      <point x="549" y="1001" type="curve"/>
      <point x="434" y="1108" type="line"/>
      <point x="213" y="901"/>
      <point x="98" y="700"/>
      <point x="98" y="418" type="curve" smooth="yes"/>
      <point x="98" y="154"/>
      <point x="246" y="-20"/>
    </contour>
    <contour>
      <point x="682" y="133" type="curve"/>
      <point x="813" y="739" type="line" smooth="yes"/>
      <point x="846" y="893"/>
      <point x="889" y="967"/>
      <point x="985" y="967" type="curve" smooth="yes"/>
      <point x="1059" y="967"/>
      <point x="1112" y="909"/>
      <point x="1112" y="743" type="curve" smooth="yes"/>
      <point x="1112" y="498"/>
      <point x="1012" y="166"/>
    </contour>
  </outline>
</glyph>
<glyph name="uni2C7F" format="2">
  <advance width="1087"/>
  <unicode hex="2C7F"/>
  <outline>
    <contour>
      <point x="672" y="-459" type="curve" smooth="yes"/>
      <point x="725" y="-459"/>
      <point x="788" y="-451"/>
      <point x="825" y="-434" type="curve"/>
      <point x="858" y="-283" type="line"/>
      <point x="813" y="-297"/>
      <point x="762" y="-309"/>
      <point x="715" y="-309" type="curve" smooth="yes"/>
      <point x="602" y="-309"/>
      <point x="565" y="-262"/>
      <point x="498" y="-96" type="curve" smooth="yes"/>
      <point x="442" y="47"/>
      <point x="383" y="131"/>
      <point x="225" y="152" type="curve"/>
      <point x="1147" y="1317" type="line"/>
      <point x="1174" y="1462" type="line"/>
      <point x="309" y="1462" type="line"/>
      <point x="274" y="1298" type="line"/>
      <point x="920" y="1298" type="line"/>
      <point x="8" y="143" type="line"/>
      <point x="-20" y="0" type="line"/>
      <point x="119" y="0" type="line" smooth="yes"/>
      <point x="244" y="0"/>
      <point x="285" y="-43"/>
      <point x="336" y="-184" type="curve" smooth="yes"/>
      <point x="397" y="-354"/>
      <point x="465" y="-459"/>
    </contour>
  </outline>
</glyph>
<glyph name="rightdottedsubstitutionbracket" format="2">
  <advance width="1024"/>
  <unicode hex="2E05"/>
  <outline>
    <contour>
      <point x="664" y="565" type="line"/>
      <point x="770" y="565" type="line"/>
      <point x="770" y="1208" type="line"/>
      <point x="324" y="1462" type="line"/>
      <point x="270" y="1368" type="line"/>
      <point x="664" y="1149" type="line"/>
    </contour>
    <contour>
      <point x="395" y="838" type="curve" smooth="yes"/>
      <point x="451" y="838"/>
      <point x="487" y="872"/>
      <point x="487" y="944" type="curve" smooth="yes"/>
      <point x="487" y="1014"/>
      <point x="451" y="1049"/>
      <point x="395" y="1049" type="curve" smooth="yes"/>
      <point x="340" y="1049"/>
      <point x="305" y="1014"/>
      <point x="305" y="944" type="curve" smooth="yes"/>
      <point x="305" y="872"/>
      <point x="340" y="838"/>
    </contour>
  </outline>
</glyph>
<glyph name="hypodiastole" format="2">
  <advance width="633"/>
  <unicode hex="2E12"/>
  <outline>
    <contour>
      <point x="205" y="-461" type="line"/>
      <point x="338" y="-461"/>
      <point x="428" y="-381"/>
      <point x="428" y="-246" type="curve" smooth="yes"/>
      <point x="428" y="-109"/>
      <point x="338" y="-29"/>
      <point x="205" y="-29" type="curve"/>
      <point x="205" y="-111" type="line"/>
      <point x="295" y="-111"/>
      <point x="344" y="-160"/>
      <point x="344" y="-246" type="curve" smooth="yes"/>
      <point x="344" y="-332"/>
      <point x="285" y="-381"/>
      <point x="205" y="-381" type="curve"/>
    </contour>
  </outline>
</glyph>
<glyph name="uni2E42" format="2">
  <advance width="872"/>
  <unicode hex="2E42"/>
  <outline>
    <contour>
      <point x="215" y="-264" type="curve"/>
      <point x="348" y="-264" type="line"/>
      <point x="305" y="-111"/>
      <point x="289" y="94"/>
      <point x="281" y="238" type="curve"/>
      <point x="96" y="238" type="line"/>
      <point x="78" y="215" type="line"/>
      <point x="100" y="70"/>
      <point x="145" y="-119"/>
    </contour>
    <contour>
      <point x="565" y="-264" type="curve"/>
      <point x="696" y="-264" type="line"/>
      <point x="653" y="-111"/>
      <point x="639" y="94"/>
      <point x="633" y="238" type="curve"/>
      <point x="446" y="238" type="line"/>
      <point x="430" y="215" type="line"/>
      <point x="453" y="70"/>
      <point x="498" y="-119"/>
    </contour>
  </outline>
</glyph>
<glyph name="uniA641" format="2">
  <advance width="911"/>
  <unicode hex="A641"/>
  <outline>
    <contour>
      <point x="-43" y="-440" type="line"/>
      <point x="-10" y="-414"/>
      <point x="66" y="-399"/>
      <point x="121" y="-399" type="curve" smooth="yes"/>
      <point x="195" y="-399"/>
      <point x="276" y="-412"/>
      <point x="399" y="-412" type="curve" smooth="yes"/>
      <point x="594" y="-412"/>
      <point x="711" y="-303"/>
      <point x="711" y="-123" type="curve" smooth="yes"/>
      <point x="711" y="27"/>
      <point x="612" y="135"/>
      <point x="367" y="135" type="curve" smooth="yes"/>
      <point x="201" y="135" type="line"/>
      <point x="870" y="952" type="line"/>
      <point x="899" y="1098" type="line"/>
      <point x="233" y="1098" type="line"/>
      <point x="205" y="963" type="line"/>
      <point x="676" y="963" type="line"/>
      <point x="-6" y="123" type="line"/>
      <point x="-31" y="0" type="line"/>
      <point x="330" y="0" type="line" smooth="yes"/>
      <point x="494" y="0"/>
      <point x="543" y="-55"/>
      <point x="543" y="-137" type="curve" smooth="yes"/>
      <point x="543" y="-238"/>
      <point x="467" y="-266"/>
      <point x="387" y="-266" type="curve" smooth="yes"/>
      <point x="281" y="-266"/>
      <point x="238" y="-254"/>
      <point x="162" y="-254" type="curve" smooth="yes"/>
      <point x="63" y="-254"/>
      <point x="10" y="-272"/>
      <point x="-12" y="-297" type="curve"/>
    </contour>
  </outline>
</glyph>
<glyph name="uniA649" format="2">
  <advance width="1276"/>
  <unicode hex="A649"/>
  <anchor x="528" y="0" name="bottom"/>
  <anchor x="752" y="1094" name="top"/>
  <outline>
    <contour>
      <point x="47" y="0" type="line"/>
      <point x="227" y="0" type="line"/>
      <point x="270" y="205" type="line" smooth="yes"/>
      <point x="311" y="401"/>
      <point x="410" y="489"/>
      <point x="610" y="489" type="curve" smooth="yes"/>
      <point x="778" y="489"/>
      <point x="868" y="428"/>
      <point x="868" y="291" type="curve" smooth="yes"/>
      <point x="868" y="264"/>
      <point x="864" y="236"/>
      <point x="858" y="205" type="curve" smooth="yes"/>
      <point x="815" y="0" type="line"/>
      <point x="995" y="0" type="line"/>
      <point x="1028" y="152" type="line" smooth="yes"/>
      <point x="1038" y="203"/>
      <point x="1044" y="248"/>
      <point x="1044" y="293" type="curve" smooth="yes"/>
      <point x="1044" y="516"/>
      <point x="903" y="641"/>
      <point x="639" y="641" type="curve" smooth="yes"/>
      <point x="330" y="641"/>
      <point x="154" y="500"/>
      <point x="92" y="213" type="curve" smooth="yes"/>
    </contour>
    <contour>
      <point x="547" y="555" type="line"/>
      <point x="727" y="555" type="line"/>
      <point x="842" y="1100" type="line"/>
      <point x="662" y="1100" type="line"/>
    </contour>
    <contour>
      <point x="305" y="797" type="line"/>
      <point x="1069" y="797" type="line"/>
      <point x="1098" y="930" type="line"/>
      <point x="334" y="930" type="line"/>
    </contour>
  </outline>
</glyph>
<glyph name="uniA65E" format="2">
  <advance width="1313"/>
  <unicode hex="A65E"/>
  <outline>
    <contour>
      <point x="436" y="-266" type="line"/>
      <point x="618" y="-266" type="line"/>
      <point x="891" y="1012" type="line"/>
      <point x="909" y="1012" type="line"/>
      <point x="905" y="901"/>
      <point x="913" y="795"/>
      <point x="930" y="657" type="curve" smooth="yes"/>
      <point x="1016" y="2" type="line"/>
      <point x="1196" y="2" type="line"/>
      <point x="985" y="1464" type="line"/>
      <point x="793" y="1464" type="line"/>
      <point x="213" y="416" type="line" smooth="yes"/>
      <point x="109" y="225"/>
      <point x="57" y="145"/>
      <point x="-37" y="145" type="curve" smooth="yes"/>
      <point x="-68" y="145"/>
      <point x="-96" y="154"/>
      <point x="-123" y="164" type="curve"/>
      <point x="-156" y="12" type="line"/>
      <point x="-127" y="0"/>
      <point x="-76" y="-10"/>
      <point x="-20" y="-10" type="curve" smooth="yes"/>
      <point x="168" y="-10"/>
      <point x="268" y="133"/>
      <point x="385" y="369" type="curve" smooth="yes"/>
      <point x="514" y="629" type="line" smooth="yes"/>
      <point x="578" y="756"/>
      <point x="643" y="891"/>
      <point x="690" y="1012" type="curve"/>
      <point x="709" y="1012" type="line"/>
    </contour>
  </outline>
</glyph>
<glyph name="uniA660" format="2">
  <advance width="1368"/>
  <unicode hex="A660"/>
  <outline>
    <contour>
      <point x="-156" y="-385" type="line"/>
      <point x="20" y="-385" type="line"/>
      <point x="102" y="0" type="line"/>
      <point x="1067" y="0" type="line"/>
      <point x="1374" y="1462" type="line"/>
      <point x="1190" y="1462" type="line"/>
      <point x="915" y="164" type="line"/>
      <point x="301" y="164" type="line"/>
      <point x="575" y="1462" type="line"/>
      <point x="391" y="1462" type="line"/>
      <point x="117" y="162" type="line"/>
      <point x="-39" y="162" type="line"/>
    </contour>
  </outline>
</glyph>
<glyph name="uniA682" format="2">
  <advance width="1051"/>
  <unicode hex="A682"/>
  <outline>
    <contour>
      <point x="295" y="-492" type="curve" smooth="yes"/>
      <point x="637" y="-492"/>
      <point x="858" y="-270"/>
      <point x="858" y="104" type="curve" smooth="yes"/>
      <point x="858" y="328"/>
      <point x="731" y="455"/>
      <point x="604" y="575" type="curve" smooth="yes"/>
      <point x="496" y="678"/>
      <point x="412" y="780"/>
      <point x="412" y="963" type="curve" smooth="yes"/>
      <point x="410" y="1157"/>
      <point x="557" y="1327"/>
      <point x="745" y="1327" type="curve" smooth="yes"/>
      <point x="844" y="1327"/>
      <point x="926" y="1292"/>
      <point x="1016" y="1229" type="curve"/>
      <point x="1108" y="1378" type="line"/>
      <point x="1022" y="1442"/>
      <point x="915" y="1483"/>
      <point x="745" y="1483" type="curve" smooth="yes"/>
      <point x="422" y="1483"/>
      <point x="221" y="1241"/>
      <point x="221" y="930" type="curve" smooth="yes"/>
      <point x="221" y="684"/>
      <point x="352" y="551"/>
      <point x="467" y="440" type="curve" smooth="yes"/>
      <point x="582" y="330"/>
      <point x="662" y="240"/>
      <point x="664" y="57" type="curve" smooth="yes"/>
      <point x="664" y="-152"/>
      <point x="532" y="-334"/>
      <point x="289" y="-334" type="curve" smooth="yes"/>
      <point x="160" y="-334"/>
      <point x="25" y="-287"/>
      <point x="-68" y="-223" type="curve"/>
      <point x="-68" y="-406" type="line"/>
      <point x="14" y="-457"/>
      <point x="121" y="-492"/>
    </contour>
  </outline>
</glyph>
<glyph name="uniA685" format="2">
  <advance width="1847"/>
  <unicode hex="A685"/>
  <outline>
    <contour>
      <point x="354" y="494" type="line"/>
      <point x="1112" y="494" type="line"/>
      <point x="1145" y="645" type="line"/>
      <point x="387" y="645" type="line"/>
    </contour>
    <component base="afii10073"/>
    <component base="afii10076" xOffset="852"/>
  </outline>
</glyph>
<glyph name="uniA68B" format="2">
  <advance width="1378"/>
  <unicode hex="A68B"/>
  <outline>
    <contour>
      <point x="731" y="-492" type="curve" smooth="yes"/>
      <point x="936" y="-492"/>
      <point x="1024" y="-362"/>
      <point x="1067" y="-158" type="curve" smooth="yes"/>
      <point x="1159" y="285" type="line" smooth="yes"/>
      <point x="1169" y="332"/>
      <point x="1174" y="373"/>
      <point x="1174" y="412" type="curve" smooth="yes"/>
      <point x="1174" y="608"/>
      <point x="1051" y="696"/>
      <point x="883" y="696" type="curve" smooth="yes"/>
      <point x="748" y="696"/>
      <point x="651" y="645"/>
      <point x="553" y="578" type="curve"/>
      <point x="633" y="956" type="line"/>
      <point x="956" y="956" type="line"/>
      <point x="987" y="1100" type="line"/>
      <point x="156" y="1100" type="line"/>
      <point x="125" y="956" type="line"/>
      <point x="451" y="956" type="line"/>
      <point x="248" y="0" type="line"/>
      <point x="430" y="0" type="line"/>
      <point x="522" y="438" type="line"/>
      <point x="614" y="496"/>
      <point x="717" y="545"/>
      <point x="840" y="545" type="curve" smooth="yes"/>
      <point x="940" y="545"/>
      <point x="993" y="500"/>
      <point x="993" y="393" type="curve" smooth="yes"/>
      <point x="993" y="365"/>
      <point x="989" y="332"/>
      <point x="981" y="293" type="curve" smooth="yes"/>
      <point x="889" y="-137" type="line" smooth="yes"/>
      <point x="860" y="-272"/>
      <point x="805" y="-340"/>
      <point x="723" y="-340" type="curve" smooth="yes"/>
      <point x="678" y="-340"/>
      <point x="639" y="-332"/>
      <point x="604" y="-317" type="curve"/>
      <point x="604" y="-471" type="line"/>
      <point x="637" y="-483"/>
      <point x="682" y="-492"/>
    </contour>
  </outline>
</glyph>
<glyph name="uniA696" format="2">
  <advance width="1980"/>
  <unicode hex="A696"/>
  <outline>
    <contour>
      <point x="563" y="-442" type="curve"/>
      <point x="1368" y="-442" type="line" smooth="yes"/>
      <point x="1667" y="-442"/>
      <point x="1806" y="-319"/>
      <point x="1806" y="-104" type="curve" smooth="yes"/>
      <point x="1806" y="-2"/>
      <point x="1767" y="76"/>
      <point x="1692" y="121" type="curve"/>
      <point x="1978" y="1462" type="line"/>
      <point x="1796" y="1462" type="line"/>
      <point x="1522" y="164" type="line"/>
      <point x="1006" y="164" type="line"/>
      <point x="1280" y="1462" type="line"/>
      <point x="1096" y="1462" type="line"/>
      <point x="821" y="164" type="line"/>
      <point x="303" y="164" type="line"/>
      <point x="580" y="1462" type="line"/>
      <point x="395" y="1462" type="line"/>
      <point x="86" y="0" type="line"/>
      <point x="1444" y="0" type="line" smooth="yes"/>
      <point x="1559" y="0"/>
      <point x="1622" y="-53"/>
      <point x="1622" y="-143" type="curve" smooth="yes"/>
      <point x="1622" y="-289"/>
      <point x="1503" y="-330"/>
      <point x="1358" y="-330" type="curve" smooth="yes"/>
      <point x="578" y="-330" type="line" smooth="yes"/>
      <point x="520" y="-330"/>
      <point x="504" y="-303"/>
      <point x="504" y="-279" type="curve" smooth="yes"/>
      <point x="504" y="-244"/>
      <point x="524" y="-215"/>
      <point x="596" y="-215" type="curve" smooth="yes"/>
      <point x="1296" y="-215" type="line"/>
      <point x="1319" y="-106" type="line"/>
      <point x="573" y="-106" type="line" smooth="yes"/>
      <point x="436" y="-106"/>
      <point x="358" y="-182"/>
      <point x="358" y="-283" type="curve" smooth="yes"/>
      <point x="358" y="-379"/>
      <point x="422" y="-442"/>
    </contour>
  </outline>
</glyph>
<glyph name="uniA742" format="2">
  <advance width="1151"/>
  <unicode hex="A742"/>
  <anchor x="508" y="0" name="bottom"/>
  <anchor x="823" y="1462" name="top"/>
  <outline>
    <contour>
      <point x="477" y="205" type="line"/>
      <point x="1104" y="551" type="line"/>
      <point x="1055" y="662" type="line"/>
      <point x="428" y="315" type="line"/>
    </contour>
    <component base="K"/>
  </outline>
</glyph>
<glyph name="uniA743" format="2">
  <advance width="1014"/>
  <unicode hex="A743"/>
  <anchor x="453" y="0" name="bottom"/>
  <anchor x="475" y="1556" name="top"/>
  <outline>
    <contour>
      <point x="420" y="119" type="line"/>
      <point x="967" y="471" type="line"/>
      <point x="907" y="571" type="line"/>
      <point x="362" y="219" type="line"/>
    </contour>
    <component base="k"/>
  </outline>
</glyph>
<glyph name="uniA754" format="2">
  <advance width="1606"/>
  <unicode hex="A754"/>
  <outline>
    <contour>
      <point x="637" y="571" type="curve"/>
      <point x="731" y="571" type="line"/>
      <point x="764" y="725" type="line"/>
      <point x="653" y="725" type="line" smooth="yes"/>
      <point x="549" y="725"/>
      <point x="496" y="772"/>
      <point x="496" y="862" type="curve" smooth="yes"/>
      <point x="496" y="909"/>
      <point x="500" y="942"/>
      <point x="508" y="979" type="curve" smooth="yes"/>
      <point x="539" y="1110" type="line" smooth="yes"/>
      <point x="549" y="1155"/>
      <point x="553" y="1198"/>
      <point x="553" y="1239" type="curve" smooth="yes"/>
      <point x="553" y="1378"/>
      <point x="492" y="1483"/>
      <point x="344" y="1483" type="curve" smooth="yes"/>
      <point x="291" y="1483"/>
      <point x="250" y="1470"/>
      <point x="217" y="1454" type="curve"/>
      <point x="217" y="1321" type="line"/>
      <point x="240" y="1325"/>
      <point x="266" y="1329"/>
      <point x="295" y="1329" type="curve" smooth="yes"/>
      <point x="348" y="1329"/>
      <point x="375" y="1298"/>
      <point x="375" y="1237" type="curve" smooth="yes"/>
      <point x="375" y="1217"/>
      <point x="373" y="1192"/>
      <point x="367" y="1165" type="curve" smooth="yes"/>
      <point x="336" y="1024" type="line" smooth="yes"/>
      <point x="322" y="954"/>
      <point x="313" y="895"/>
      <point x="313" y="842" type="curve" smooth="yes"/>
      <point x="313" y="653"/>
      <point x="424" y="571"/>
    </contour>
    <component base="P" xOffset="444"/>
  </outline>
</glyph>
<glyph name="uniA776" format="2">
  <advance width="1485"/>
  <unicode hex="A776"/>
  <outline>
    <contour>
      <point x="745" y="-322" type="line"/>
      <point x="881" y="-322" type="line"/>
      <point x="1343" y="467" type="line"/>
      <point x="1208" y="467" type="line"/>
    </contour>
    <contour>
      <point x="780" y="0" type="line"/>
      <point x="1348" y="0" type="line"/>
      <point x="1378" y="147" type="line"/>
      <point x="811" y="147" type="line"/>
    </contour>
    <component base="uni0280"/>
  </outline>
</glyph>
<glyph name="uniA782" format="2">
  <advance width="1452"/>
  <unicode hex="A782"/>
  <outline>
    <contour>
      <point x="-2" y="-403" type="line"/>
      <point x="180" y="-403" type="line"/>
      <point x="453" y="866" type="line" smooth="yes"/>
      <point x="514" y="1155"/>
      <point x="655" y="1331"/>
      <point x="907" y="1331" type="curve" smooth="yes"/>
      <point x="1051" y="1331"/>
      <point x="1120" y="1260"/>
      <point x="1120" y="1124" type="curve" smooth="yes"/>
      <point x="1120" y="1065"/>
      <point x="1114" y="1014"/>
      <point x="1102" y="954" type="curve" smooth="yes"/>
      <point x="967" y="324" type="line" smooth="yes"/>
      <point x="956" y="279"/>
      <point x="952" y="238"/>
      <point x="952" y="201" type="curve" smooth="yes"/>
      <point x="952" y="63"/>
      <point x="1022" y="-20"/>
      <point x="1174" y="-20" type="curve" smooth="yes"/>
      <point x="1235" y="-20"/>
      <point x="1294" y="-10"/>
      <point x="1337" y="10" type="curve"/>
      <point x="1337" y="152" type="line"/>
      <point x="1305" y="141"/>
      <point x="1278" y="135"/>
      <point x="1243" y="135" type="curve" smooth="yes"/>
      <point x="1178" y="135"/>
      <point x="1145" y="176"/>
      <point x="1145" y="250" type="curve" smooth="yes"/>
      <point x="1145" y="272"/>
      <point x="1147" y="297"/>
      <point x="1153" y="326" type="curve" smooth="yes"/>
      <point x="1286" y="952" type="line" smooth="yes"/>
      <point x="1303" y="1028"/>
      <point x="1311" y="1094"/>
      <point x="1311" y="1167" type="curve" smooth="yes"/>
      <point x="1311" y="1376"/>
      <point x="1192" y="1483"/>
      <point x="969" y="1483" type="curve" smooth="yes"/>
      <point x="786" y="1483"/>
      <point x="639" y="1405"/>
      <point x="535" y="1270" type="curve"/>
      <point x="522" y="1270" type="line"/>
      <point x="537" y="1462" type="line"/>
      <point x="395" y="1462" type="line"/>
    </contour>
  </outline>
</glyph>
<glyph name="uniA785" format="2">
  <advance width="815"/>
  <unicode hex="A785"/>
  <outline>
    <contour>
      <point x="-43" y="-492" type="line"/>
      <point x="137" y="-492" type="line"/>
      <point x="344" y="502" type="line" smooth="yes"/>
      <point x="389" y="719"/>
      <point x="530" y="954"/>
      <point x="735" y="954" type="curve"/>
      <point x="770" y="954"/>
      <point x="803" y="950"/>
      <point x="840" y="942" type="curve"/>
      <point x="879" y="1104" type="line"/>
      <point x="842" y="1114"/>
      <point x="799" y="1118"/>
      <point x="760" y="1118" type="curve"/>
      <point x="604" y="1118"/>
      <point x="512" y="1008"/>
      <point x="426" y="895" type="curve"/>
      <point x="416" y="895" type="line"/>
      <point x="438" y="1098" type="line"/>
      <point x="291" y="1098" type="line"/>
    </contour>
  </outline>
</glyph>
<glyph name="uniA79E" format="2">
  <advance width="1466"/>
  <unicode hex="A79E"/>
  <outline>
    <contour>
      <point x="575" y="-20" type="curve" smooth="yes"/>
      <point x="811" y="-20"/>
      <point x="932" y="76"/>
      <point x="1028" y="203" type="curve"/>
      <point x="1036" y="203" type="line"/>
      <point x="1020" y="0" type="line"/>
      <point x="1165" y="0" type="line"/>
      <point x="1475" y="1462" type="line"/>
      <point x="1292" y="1462" type="line"/>
      <point x="1108" y="586" type="line"/>
      <point x="1061" y="365"/>
      <point x="911" y="131"/>
      <point x="608" y="131" type="curve" smooth="yes"/>
      <point x="432" y="131"/>
      <point x="340" y="217"/>
      <point x="340" y="350" type="curve" smooth="yes"/>
      <point x="340" y="590"/>
      <point x="522" y="680"/>
      <point x="809" y="680" type="curve" smooth="yes"/>
      <point x="852" y="680" type="line"/>
      <point x="885" y="834" type="line"/>
      <point x="809" y="834" type="line" smooth="yes"/>
      <point x="608" y="834"/>
      <point x="500" y="913"/>
      <point x="500" y="1063" type="curve" smooth="yes"/>
      <point x="500" y="1087"/>
      <point x="504" y="1116"/>
      <point x="510" y="1145" type="curve" smooth="yes"/>
      <point x="578" y="1462" type="line"/>
      <point x="395" y="1462" type="line"/>
      <point x="330" y="1157" type="line" smooth="yes"/>
      <point x="322" y="1122"/>
      <point x="317" y="1085"/>
      <point x="317" y="1053" type="curve" smooth="yes"/>
      <point x="317" y="911"/>
      <point x="391" y="795"/>
      <point x="584" y="770" type="curve"/>
      <point x="582" y="762" type="line"/>
      <point x="332" y="725"/>
      <point x="150" y="625"/>
      <point x="150" y="350" type="curve" smooth="yes"/>
      <point x="150" y="145"/>
      <point x="285" y="-20"/>
    </contour>
  </outline>
</glyph>
<glyph name="uniA7A8" format="2">
  <advance width="1034"/>
  <unicode hex="A7A8"/>
  <anchor x="401" y="0" name="bottom"/>
  <anchor x="692" y="1462" name="top"/>
  <outline>
    <contour>
      <point x="35" y="594" type="line"/>
      <point x="1073" y="836" type="line"/>
      <point x="1100" y="963" type="line"/>
      <point x="61" y="721" type="line"/>
    </contour>
    <component base="S"/>
  </outline>
</glyph>
<glyph name="uniAB33" format="2">
  <advance width="1022"/>
  <unicode hex="AB33"/>
  <outline>
    <contour>
      <point x="496" y="-20" type="curve" smooth="yes"/>
      <point x="635" y="-20"/>
      <point x="723" y="12"/>
      <point x="827" y="59" type="curve"/>
      <point x="827" y="213" type="line"/>
      <point x="719" y="160"/>
      <point x="631" y="129"/>
      <point x="528" y="129" type="curve" smooth="yes"/>
      <point x="360" y="129"/>
      <point x="281" y="231"/>
      <point x="281" y="399" type="curve" smooth="yes"/>
      <point x="281" y="444"/>
      <point x="287" y="498"/>
      <point x="295" y="547" type="curve"/>
      <point x="330" y="547" type="line" smooth="yes"/>
      <point x="774" y="547"/>
      <point x="961" y="688"/>
      <point x="961" y="885" type="curve" smooth="yes"/>
      <point x="961" y="1034"/>
      <point x="874" y="1118"/>
      <point x="662" y="1118" type="curve" smooth="yes"/>
      <point x="297" y="1118"/>
      <point x="98" y="741"/>
      <point x="98" y="393" type="curve" smooth="yes"/>
      <point x="98" y="139"/>
      <point x="242" y="-20"/>
    </contour>
    <contour>
      <point x="-6" y="387" type="line"/>
      <point x="961" y="387" type="line"/>
      <point x="985" y="500" type="line"/>
      <point x="18" y="500" type="line"/>
    </contour>
    <contour>
      <point x="338" y="692" type="line"/>
      <point x="391" y="866"/>
      <point x="541" y="969"/>
      <point x="662" y="969" type="curve" smooth="yes"/>
      <point x="737" y="969"/>
      <point x="784" y="938"/>
      <point x="784" y="883" type="curve" smooth="yes"/>
      <point x="784" y="752"/>
      <point x="584" y="692"/>
      <point x="352" y="692" type="curve" smooth="yes"/>
    </contour>
  </outline>
</glyph>
<glyph name="uniAB37" format="2">
  <advance width="780"/>
  <unicode hex="AB37"/>
  <outline>
    <contour>
      <point x="139" y="528" type="curve" smooth="yes"/>
      <point x="178" y="528"/>
      <point x="205" y="561"/>
      <point x="205" y="596" type="curve" smooth="yes"/>
      <point x="205" y="614"/>
      <point x="195" y="637"/>
      <point x="176" y="668" type="curve" smooth="yes"/>
      <point x="164" y="688"/>
      <point x="160" y="721"/>
      <point x="160" y="745" type="curve" smooth="yes"/>
      <point x="160" y="821"/>
      <point x="197" y="901"/>
      <point x="299" y="901" type="curve" smooth="yes"/>
      <point x="346" y="901"/>
      <point x="385" y="887"/>
      <point x="451" y="868" type="curve" smooth="yes"/>
      <point x="506" y="850"/>
      <point x="569" y="831"/>
      <point x="629" y="831" type="curve" smooth="yes"/>
      <point x="801" y="831"/>
      <point x="901" y="936"/>
      <point x="901" y="1143" type="curve" smooth="yes"/>
      <point x="901" y="1255"/>
      <point x="854" y="1325"/>
      <point x="799" y="1325" type="curve" smooth="yes"/>
      <point x="766" y="1325"/>
      <point x="733" y="1296"/>
      <point x="733" y="1257" type="curve" smooth="yes"/>
      <point x="733" y="1237"/>
      <point x="741" y="1212"/>
      <point x="760" y="1186" type="curve" smooth="yes"/>
      <point x="772" y="1165"/>
      <point x="778" y="1135"/>
      <point x="778" y="1108" type="curve" smooth="yes"/>
      <point x="778" y="1028"/>
      <point x="733" y="954"/>
      <point x="649" y="954" type="curve" smooth="yes"/>
      <point x="598" y="954"/>
      <point x="559" y="967"/>
      <point x="494" y="987" type="curve" smooth="yes"/>
      <point x="444" y="1006"/>
      <point x="377" y="1024"/>
      <point x="322" y="1024" type="curve" smooth="yes"/>
      <point x="156" y="1024"/>
      <point x="39" y="936"/>
      <point x="39" y="715" type="curve" smooth="yes"/>
      <point x="39" y="602"/>
      <point x="86" y="528"/>
    </contour>
    <component base="l" xOffset="129"/>
  </outline>
</glyph>
<glyph name="uniAB56" format="2">
  <advance width="1137"/>
  <unicode hex="AB56"/>
  <outline>
    <contour>
      <point x="840" y="-18" type="curve" smooth="yes"/>
      <point x="991" y="-18"/>
      <point x="1098" y="94"/>
      <point x="1098" y="260" type="curve" smooth="yes"/>
      <point x="1098" y="389"/>
      <point x="1008" y="475"/>
      <point x="887" y="475" type="curve" smooth="yes"/>
      <point x="799" y="475"/>
      <point x="719" y="436"/>
      <point x="678" y="356" type="curve"/>
      <point x="588" y="557" type="line"/>
      <point x="1044" y="1098" type="line"/>
      <point x="836" y="1098" type="line"/>
      <point x="514" y="692" type="line"/>
      <point x="344" y="1098" type="line"/>
      <point x="162" y="1098" type="line"/>
      <point x="399" y="565" type="line"/>
      <point x="-76" y="0" type="line"/>
      <point x="133" y="0" type="line"/>
      <point x="471" y="426" type="line"/>
      <point x="573" y="188" type="line" smooth="yes"/>
      <point x="639" y="37"/>
      <point x="713" y="-18"/>
    </contour>
    <contour>
      <point x="852" y="111" type="curve" smooth="yes"/>
      <point x="797" y="111"/>
      <point x="752" y="145"/>
      <point x="752" y="223" type="curve" smooth="yes"/>
      <point x="752" y="289"/>
      <point x="799" y="356"/>
      <point x="868" y="356" type="curve" smooth="yes"/>
      <point x="928" y="356"/>
      <point x="967" y="319"/>
      <point x="967" y="252" type="curve" smooth="yes"/>
      <point x="967" y="172"/>
      <point x="922" y="111"/>
    </contour>
  </outline>
</glyph>
<glyph name="uniAB63" format="2">
  <advance width="1878"/>
  <unicode hex="AB63"/>
  <outline>
    <contour>
      <point x="393" y="-29" type="curve" smooth="yes"/>
      <point x="604" y="-29"/>
      <point x="760" y="104"/>
      <point x="840" y="231" type="curve"/>
      <point x="942" y="231" type="line"/>
      <point x="1126" y="1098" type="line"/>
      <point x="948" y="1098" type="line"/>
      <point x="848" y="625" type="line" smooth="yes"/>
      <point x="770" y="264"/>
      <point x="578" y="129"/>
      <point x="438" y="129" type="curve" smooth="yes"/>
      <point x="336" y="129"/>
      <point x="295" y="182"/>
      <point x="295" y="270" type="curve" smooth="yes"/>
      <point x="295" y="305"/>
      <point x="301" y="348"/>
      <point x="313" y="408" type="curve" smooth="yes"/>
      <point x="461" y="1098" type="line"/>
      <point x="279" y="1098" type="line"/>
      <point x="135" y="428" type="line"/>
      <point x="123" y="367"/>
      <point x="113" y="313"/>
      <point x="113" y="252" type="curve" smooth="yes"/>
      <point x="113" y="70"/>
      <point x="221" y="-29"/>
    </contour>
    <component base="o" xOffset="725"/>
  </outline>
</glyph>
<glyph name="a.sc" format="2">
  <advance width="979"/>
  <anchor x="365" y="0" name="bottom"/>
  <anchor x="614" y="1169" name="top"/>
  <anchor x="1063" y="1169" name="topright"/>
  <outline>
    <contour>
      <point x="-117" y="0" type="line"/>
      <point x="78" y="0" type="line"/>
      <point x="254" y="334" type="line"/>
      <point x="653" y="334" type="line"/>
      <point x="692" y="0" type="line"/>
      <point x="870" y="0" type="line"/>
      <point x="725" y="1169" type="line"/>
      <point x="520" y="1169" type="line"/>
    </contour>
    <contour>
      <point x="334" y="489" type="line"/>
      <point x="459" y="727" type="line" smooth="yes"/>
      <point x="506" y="817"/>
      <point x="549" y="903"/>
      <point x="588" y="999" type="curve"/>
      <point x="594" y="999" type="line"/>
      <point x="592" y="913"/>
      <point x="602" y="815"/>
      <point x="612" y="737" type="curve"/>
      <point x="637" y="489" type="line"/>
    </contour>
  </outline>
</glyph>
<glyph name="dieresiscaron" format="2">
  <outline>
    <contour>
      <point x="100" y="1528" type="curve"/>
      <point x="276" y="1528" type="line"/>
      <point x="336" y="1620"/>
      <point x="496" y="1765"/>
      <point x="565" y="1829" type="curve"/>
      <point x="565" y="1855" type="line"/>
      <point x="449" y="1855" type="line"/>
      <point x="375" y="1808"/>
      <point x="287" y="1743"/>
      <point x="203" y="1669" type="curve"/>
      <point x="150" y="1743"/>
      <point x="94" y="1812"/>
      <point x="41" y="1855" type="curve"/>
      <point x="-68" y="1855" type="line"/>
      <point x="-68" y="1829" type="line"/>
      <point x="-16" y="1749"/>
      <point x="63" y="1632"/>
    </contour>
    <contour>
      <point x="-27" y="1231" type="curve"/>
      <point x="25" y="1231"/>
      <point x="76" y="1276"/>
      <point x="76" y="1352" type="curve"/>
      <point x="76" y="1401"/>
      <point x="51" y="1434"/>
      <point x="-6" y="1434" type="curve"/>
      <point x="-76" y="1434"/>
      <point x="-115" y="1378"/>
      <point x="-115" y="1317" type="curve"/>
      <point x="-115" y="1262"/>
      <point x="-78" y="1231"/>
    </contour>
    <contour>
      <point x="340" y="1231" type="curve"/>
      <point x="391" y="1231"/>
      <point x="444" y="1276"/>
      <point x="444" y="1352" type="curve"/>
      <point x="444" y="1401"/>
      <point x="418" y="1434"/>
      <point x="362" y="1434" type="curve"/>
      <point x="293" y="1434"/>
      <point x="254" y="1378"/>
      <point x="254" y="1317" type="curve"/>
      <point x="254" y="1262"/>
      <point x="291" y="1231"/>
    </contour>
  </outline>
</glyph>
<glyph name="f.ss02" format="2">
  <advance width="651"/>
  <anchor x="180" y="0" name="bottom"/>
  <anchor x="715" y="1567" name="top"/>
  <anchor x="930" y="1567" name="topright"/>
  <outline>
    <contour>
      <point x="88" y="0" type="line"/>
      <point x="268" y="0" type="line"/>
      <point x="471" y="961" type="line"/>
      <point x="707" y="961" type="line"/>
      <point x="733" y="1098" type="line"/>
      <point x="498" y="1098" type="line"/>
      <point x="522" y="1202" type="line" smooth="yes"/>
      <point x="559" y="1372"/>
      <point x="616" y="1419"/>
      <point x="723" y="1419" type="curve"/>
      <point x="776" y="1419"/>
      <point x="821" y="1405"/>
      <point x="860" y="1391" type="curve"/>
      <point x="907" y="1528" type="line"/>
      <point x="862" y="1548"/>
      <point x="782" y="1567"/>
      <point x="715" y="1567" type="curve"/>
      <point x="512" y="1567"/>
      <point x="406" y="1483"/>
      <point x="342" y="1202" type="curve" smooth="yes"/>
      <point x="319" y="1104" type="line"/>
      <point x="115" y="1036" type="line"/>
      <point x="100" y="961" type="line"/>
      <point x="291" y="961" type="line"/>
    </contour>
  </outline>
</glyph>
<glyph name="f_f.ss02" format="2">
  <advance width="1303"/>
  <anchor x="831" y="0" name="bottom"/>
  <anchor x="182" y="0" name="bottom_1"/>
  <anchor x="834" y="0" name="bottom_2"/>
  <anchor x="522" y="0" name="caret_1"/>
  <anchor x="1366" y="1567" name="top"/>
  <anchor x="680" y="1567" name="top_1"/>
  <anchor x="1329" y="1567" name="top_2"/>
  <anchor x="1581" y="1567" name="topright"/>
  <outline>
    <contour>
      <point x="88" y="0" type="line"/>
      <point x="268" y="0" type="line"/>
      <point x="471" y="961" type="line"/>
      <point x="942" y="961" type="line"/>
      <point x="739" y="0" type="line"/>
      <point x="920" y="0" type="line"/>
      <point x="1122" y="961" type="line"/>
      <point x="1358" y="961" type="line"/>
      <point x="1384" y="1098" type="line"/>
      <point x="1149" y="1098" type="line"/>
      <point x="1174" y="1202" type="line" smooth="yes"/>
      <point x="1210" y="1372"/>
      <point x="1268" y="1419"/>
      <point x="1374" y="1419" type="curve" smooth="yes"/>
      <point x="1427" y="1419"/>
      <point x="1473" y="1405"/>
      <point x="1511" y="1391" type="curve"/>
      <point x="1559" y="1528" type="line"/>
      <point x="1513" y="1548"/>
      <point x="1434" y="1567"/>
      <point x="1366" y="1567" type="curve" smooth="yes"/>
      <point x="1163" y="1567"/>
      <point x="1055" y="1485"/>
      <point x="993" y="1202" type="curve" smooth="yes"/>
      <point x="971" y="1098" type="line"/>
      <point x="498" y="1098" type="line"/>
      <point x="522" y="1202" type="line" smooth="yes"/>
      <point x="559" y="1372"/>
      <point x="616" y="1419"/>
      <point x="723" y="1419" type="curve" smooth="yes"/>
      <point x="776" y="1419"/>
      <point x="821" y="1405"/>
      <point x="860" y="1391" type="curve"/>
      <point x="907" y="1528" type="line"/>
      <point x="862" y="1548"/>
      <point x="782" y="1567"/>
      <point x="715" y="1567" type="curve" smooth="yes"/>
      <point x="512" y="1567"/>
      <point x="406" y="1483"/>
      <point x="342" y="1202" type="curve" smooth="yes"/>
      <point x="319" y="1104" type="line"/>
      <point x="115" y="1036" type="line"/>
      <point x="100" y="961" type="line"/>
      <point x="291" y="961" type="line"/>
    </contour>
  </outline>
</glyph>
<glyph name="i_sc.salt" format="2">
  <advance width="492"/>
  <anchor x="131" y="0" name="bottom"/>
  <anchor x="381" y="1169" name="top"/>
  <anchor x="582" y="1169" name="topright"/>
  <outline>
    <contour>
      <point x="43" y="0" type="line"/>
      <point x="221" y="0" type="line"/>
      <point x="473" y="1169" type="line"/>
      <point x="295" y="1169" type="line"/>
    </contour>
  </outline>
</glyph>
<glyph name="macroncomb.sc" format="2">
  <advance width="1096"/>
  <anchor x="672" y="1169" name="_top"/>
  <anchor x="705" y="1427" name="top"/>
  <outline>
    <contour>
      <point x="410" y="1282" type="line"/>
      <point x="961" y="1282" type="line"/>
      <point x="991" y="1427" type="line"/>
      <point x="440" y="1427" type="line"/>
    </contour>
  </outline>
</glyph>
<glyph name="q.sc" format="2">
  <advance width="1214"/>
  <anchor x="424" y="-279" name="bottom"/>
  <anchor x="733" y="1169" name="top"/>
  <anchor x="1298" y="1169" name="topright"/>
  <outline>
    <contour>
      <point x="737" y="-279" type="line"/>
      <point x="958" y="-279" type="line"/>
      <point x="737" y="20" type="line"/>
      <point x="997" y="117"/>
      <point x="1139" y="403"/>
      <point x="1139" y="725" type="curve" smooth="yes"/>
      <point x="1139" y="1010"/>
      <point x="979" y="1188"/>
      <point x="702" y="1188" type="curve" smooth="yes"/>
      <point x="313" y="1188"/>
      <point x="92" y="834"/>
      <point x="92" y="440" type="curve" smooth="yes"/>
      <point x="92" y="160"/>
      <point x="250" y="-16"/>
      <point x="539" y="-16" type="curve" smooth="yes"/>
      <point x="547" y="-16"/>
      <point x="555" y="-16"/>
      <point x="563" y="-14" type="curve"/>
    </contour>
    <contour>
      <point x="549" y="141" type="curve" smooth="yes"/>
      <point x="381" y="141"/>
      <point x="281" y="250"/>
      <point x="281" y="442" type="curve" smooth="yes"/>
      <point x="281" y="766"/>
      <point x="440" y="1030"/>
      <point x="690" y="1030" type="curve" smooth="yes"/>
      <point x="852" y="1030"/>
      <point x="950" y="922"/>
      <point x="950" y="729" type="curve" smooth="yes"/>
      <point x="950" y="412"/>
      <point x="803" y="141"/>
    </contour>
  </outline>
</glyph>
<glyph name="tildemacron" format="2">
  <outline>
    <contour>
      <point x="-207" y="1239" type="curve"/>
      <point x="-102" y="1239" type="line"/>
      <point x="-72" y="1307"/>
      <point x="-43" y="1339"/>
      <point x="14" y="1339" type="curve" smooth="yes"/>
      <point x="102" y="1339"/>
      <point x="158" y="1241"/>
      <point x="276" y="1241" type="curve" smooth="yes"/>
      <point x="389" y="1241"/>
      <point x="483" y="1331"/>
      <point x="524" y="1475" type="curve"/>
      <point x="420" y="1475" type="line"/>
      <point x="385" y="1407"/>
      <point x="344" y="1374"/>
      <point x="293" y="1374" type="curve" smooth="yes"/>
      <point x="207" y="1374"/>
      <point x="152" y="1473"/>
      <point x="27" y="1473" type="curve" smooth="yes"/>
      <point x="-98" y="1473"/>
      <point x="-170" y="1382"/>
    </contour>
    <contour>
      <point x="-125" y="1567" type="line"/>
      <point x="508" y="1567" type="line"/>
      <point x="539" y="1712" type="line"/>
      <point x="-94" y="1712" type="line"/>
    </contour>
  </outline>
</glyph>
<glyph name="uni030103040308" format="2">
  <anchor x="553" y="1098" name="_top"/>
  <anchor x="610" y="1933" name="top"/>
  <outline>
    <contour>
      <point x="334" y="1499" type="line"/>
      <point x="885" y="1499" type="line"/>
      <point x="915" y="1645" type="line"/>
      <point x="365" y="1645" type="line"/>
    </contour>
    <contour>
      <point x="385" y="1231" type="curve" smooth="yes"/>
      <point x="436" y="1231"/>
      <point x="487" y="1276"/>
      <point x="487" y="1352" type="curve" smooth="yes"/>
      <point x="487" y="1401"/>
      <point x="463" y="1434"/>
      <point x="406" y="1434" type="curve" smooth="yes"/>
      <point x="336" y="1434"/>
      <point x="297" y="1378"/>
      <point x="297" y="1317" type="curve" smooth="yes"/>
      <point x="297" y="1262"/>
      <point x="334" y="1231"/>
    </contour>
    <contour>
      <point x="752" y="1231" type="curve" smooth="yes"/>
      <point x="803" y="1231"/>
      <point x="856" y="1276"/>
      <point x="856" y="1352" type="curve" smooth="yes"/>
      <point x="856" y="1401"/>
      <point x="829" y="1434"/>
      <point x="774" y="1434" type="curve" smooth="yes"/>
      <point x="705" y="1434"/>
      <point x="666" y="1378"/>
      <point x="666" y="1317" type="curve" smooth="yes"/>
      <point x="666" y="1262"/>
      <point x="702" y="1231"/>
    </contour>
    <contour>
      <point x="547" y="1706" type="line"/>
      <point x="657" y="1706" type="line"/>
      <point x="750" y="1767"/>
      <point x="846" y="1845"/>
      <point x="903" y="1913" type="curve"/>
      <point x="903" y="1933" type="line"/>
      <point x="709" y="1933" type="line"/>
      <point x="653" y="1849"/>
      <point x="598" y="1786"/>
      <point x="547" y="1729" type="curve"/>
    </contour>
  </outline>
</glyph>
<glyph name="y.sc" format="2">
  <advance width="885"/>
  <anchor x="317" y="0" name="bottom"/>
  <anchor x="549" y="1169" name="top"/>
  <anchor x="969" y="1169" name="topright"/>
  <outline>
    <contour>
      <point x="227" y="0" type="line"/>
      <point x="410" y="0" type="line"/>
      <point x="502" y="438" type="line"/>
      <point x="1010" y="1169" type="line"/>
      <point x="805" y="1169" type="line"/>
      <point x="440" y="614" type="line"/>
      <point x="307" y="1169" type="line"/>
      <point x="125" y="1169" type="line"/>
      <point x="324" y="442" type="line"/>
    </contour>
  </outline>
</glyph>
<glyph name="zero.osf" format="2">
  <advance width="1098"/>
  <outline>
    <contour>
      <point x="469" y="-20" type="curve" smooth="yes"/>
      <point x="823" y="-20"/>
      <point x="1028" y="348"/>
      <point x="1028" y="682" type="curve" smooth="yes"/>
      <point x="1028" y="983"/>
      <point x="899" y="1147"/>
      <point x="641" y="1147" type="curve" smooth="yes"/>
      <point x="285" y="1147"/>
      <point x="72" y="772"/>
      <point x="72" y="426" type="curve" smooth="yes"/>
      <point x="72" y="166"/>
      <point x="197" y="-20"/>
    </contour>
    <contour>
      <point x="473" y="131" type="curve" smooth="yes"/>
      <point x="326" y="131"/>
      <point x="258" y="244"/>
      <point x="258" y="410" type="curve" smooth="yes"/>
      <point x="258" y="713"/>
      <point x="414" y="995"/>
      <point x="633" y="995" type="curve" smooth="yes"/>
      <point x="784" y="995"/>
      <point x="842" y="870"/>
      <point x="842" y="711" type="curve" smooth="yes"/>
      <point x="842" y="446"/>
      <point x="705" y="131"/>
    </contour>
  </outline>
</glyph>
